<svg width="26" height="29" viewBox="0 0 26 29" fill="none" xmlns="http://www.w3.org/2000/svg">
<path d="M0.524325 0.457099C0.155713 0.897833 -0.0304112 1.46284 0.00408553 2.03637V26.8974C-0.0305115 27.4709 0.155624 28.036 0.524325 28.4766L0.60751 28.5577L14.5342 14.6312V14.3026L0.60751 0.375488L0.524325 0.457099Z" fill="url(#paint0_linear_393_9059)"/>
<path d="M19.1757 19.2759L14.5338 14.6318V14.3032L19.1769 9.66016L19.2815 9.71985L24.7816 12.845C26.3526 13.7375 26.3526 15.198 24.7816 16.0911L19.2815 19.2162L19.1757 19.2759Z" fill="url(#paint1_linear_393_9059)"/>
<path d="M19.2817 19.2154L14.534 14.4673L0.52417 28.477C0.844282 28.7593 1.25307 28.9208 1.67972 28.9334C2.10636 28.946 2.52397 28.809 2.86019 28.546L19.2817 19.2154Z" fill="url(#paint2_linear_393_9059)"/>
<path d="M19.2817 9.71876L2.86019 0.388167C2.52397 0.12523 2.10636 -0.0118075 1.67972 0.000798192C1.25307 0.0134038 0.844282 0.174858 0.52417 0.457187L14.534 14.467L19.2817 9.71876Z" fill="url(#paint3_linear_393_9059)"/>
<path opacity="0.2" d="M19.177 19.1108L2.86019 28.3817C2.53691 28.6278 2.14235 28.7621 1.73606 28.7643C1.32977 28.7665 0.933804 28.6364 0.607916 28.3938L0.52417 28.4775L0.607355 28.5586L0.607916 28.558C0.933749 28.8008 1.32974 28.9309 1.73607 28.9287C2.14239 28.9266 2.53697 28.7922 2.86019 28.546L19.2817 19.2154L19.177 19.1108Z" fill="black"/>
<path opacity="0.12" d="M0.524299 28.3132C0.155722 27.8724 -0.0303968 27.3074 0.00405969 26.7339V26.8981C-0.0304175 27.4716 0.155704 28.0366 0.524299 28.4774L0.608046 28.3936L0.524299 28.3132Z" fill="black"/>
<path opacity="0.12" d="M24.7821 15.9261L19.1774 19.1109L19.282 19.2155L24.7821 16.0903C25.1056 15.9499 25.3856 15.7253 25.5928 15.44C25.8001 15.1546 25.9271 14.8189 25.9605 14.4678C25.891 14.7857 25.7482 15.0831 25.5437 15.3362C25.3391 15.5894 25.0783 15.7913 24.7821 15.9261Z" fill="black"/>
<path opacity="0.25" d="M2.85992 0.553372L24.7815 13.0085C25.0779 13.1433 25.3387 13.3453 25.5433 13.5986C25.7479 13.8518 25.8905 14.1493 25.9599 14.4674C25.9267 14.1162 25.7998 13.7803 25.5926 13.4948C25.3853 13.2093 25.1052 12.9847 24.7815 12.8443L2.85992 0.389139C1.28886 -0.503519 0.00366211 0.237946 0.00366211 2.03743V2.20166C0.00366211 0.402291 1.28886 -0.339174 2.85992 0.553372Z" fill="white"/>
<defs>
<linearGradient id="paint0_linear_393_9059" x1="13.2991" y1="1.77423" x2="-5.5662" y2="20.6396" gradientUnits="userSpaceOnUse">
<stop stop-color="#00A0FF"/>
<stop offset="0.00657" stop-color="#00A1FF"/>
<stop offset="0.2601" stop-color="#00BEFF"/>
<stop offset="0.5122" stop-color="#00D2FF"/>
<stop offset="0.7604" stop-color="#00DFFF"/>
<stop offset="1" stop-color="#00E3FF"/>
</linearGradient>
<linearGradient id="paint1_linear_393_9059" x1="26.8271" y1="14.468" x2="-0.372963" y2="14.468" gradientUnits="userSpaceOnUse">
<stop stop-color="#FFE000"/>
<stop offset="0.4087" stop-color="#FFBD00"/>
<stop offset="0.7754" stop-color="#FFA500"/>
<stop offset="1" stop-color="#FF9C00"/>
</linearGradient>
<linearGradient id="paint2_linear_393_9059" x1="16.7019" y1="17.0472" x2="-8.88098" y2="42.6301" gradientUnits="userSpaceOnUse">
<stop stop-color="#FF3A44"/>
<stop offset="1" stop-color="#C31162"/>
</linearGradient>
<linearGradient id="paint3_linear_393_9059" x1="-3.00338" y1="-7.81833" x2="8.42045" y2="3.60549" gradientUnits="userSpaceOnUse">
<stop stop-color="#32A071"/>
<stop offset="0.0685" stop-color="#2DA771"/>
<stop offset="0.4762" stop-color="#15CF74"/>
<stop offset="0.8009" stop-color="#06E775"/>
<stop offset="1" stop-color="#00F076"/>
</linearGradient>
</defs>
</svg>
