<svg width="37" height="37" viewBox="0 0 37 37" fill="none" xmlns="http://www.w3.org/2000/svg">
<rect width="36.0417" height="36.0417" rx="9.03125" fill="#DBEAFE"/>
<rect x="16.0209" y="9.02081" width="7" height="7" transform="rotate(90 16.0209 9.02081)" stroke="#038788" stroke-width="2" stroke-linecap="round"/>
<rect width="1" height="1" transform="matrix(-1 0 0 1 13.0209 12.0208)" stroke="#038788" stroke-width="2" stroke-linecap="round"/>
<rect x="16.0209" y="20.0208" width="7" height="7" transform="rotate(90 16.0209 20.0208)" stroke="#038788" stroke-width="2" stroke-linecap="round"/>
<rect x="12.0209" y="23.0208" width="1" height="1" stroke="#038788" stroke-width="2" stroke-linecap="round"/>
<rect x="20.0209" y="26.0208" width="1" height="1" stroke="#038788" stroke-width="2" stroke-linecap="round"/>
<rect x="23.0209" y="23.0208" width="1" height="1" stroke="#038788" stroke-width="2" stroke-linecap="round"/>
<rect x="20.0209" y="20.0208" width="1" height="1" stroke="#038788" stroke-width="2" stroke-linecap="round"/>
<rect x="26.0209" y="23.0208" width="1" height="1" stroke="#038788" stroke-width="2" stroke-linecap="round"/>
<rect x="26.0209" y="20.0208" width="1" height="1" stroke="#038788" stroke-width="2" stroke-linecap="round"/>
<rect x="26.0209" y="26.0208" width="1" height="1" stroke="#038788" stroke-width="2" stroke-linecap="round"/>
<rect x="27.0209" y="9.02081" width="7" height="7" transform="rotate(90 27.0209 9.02081)" stroke="#038788" stroke-width="2" stroke-linecap="round"/>
<rect x="23.0209" y="12.0208" width="1" height="1" stroke="#038788" stroke-width="2" stroke-linecap="round"/>
</svg>
