<svg width="237" height="64" viewBox="0 0 237 64" fill="none" xmlns="http://www.w3.org/2000/svg">
<path d="M87.2558 41.9162C85.7069 40.3868 84.4859 38.5577 83.6676 36.5407C82.8493 34.5237 82.4507 32.361 82.4962 30.1847C82.4737 27.9907 82.8915 25.8144 83.7248 23.7846C84.558 21.7548 85.7899 19.9127 87.3474 18.3673C88.905 16.8218 90.7567 15.6044 92.7929 14.7871C94.8292 13.9697 97.0086 13.569 99.2025 13.6086C103.96 13.6086 107.941 15.2101 111.144 18.4132C112.706 19.9434 113.938 21.7773 114.765 23.8018C115.591 25.8263 115.994 27.9985 115.949 30.1847C115.992 32.3647 115.588 34.5305 114.762 36.5483C113.936 38.566 112.704 40.3929 111.144 41.9162C107.986 45.0742 104.002 46.6758 99.2425 46.6758C94.4829 46.6758 90.4589 45.0742 87.2558 41.9162ZM105.173 36.2456C105.974 35.4475 106.602 34.4941 107.021 33.4441C107.439 32.394 107.638 31.2695 107.606 30.1397C107.626 29.0036 107.415 27.8753 106.985 26.8237C106.555 25.7721 105.914 24.8194 105.103 24.0237C104.338 23.2419 103.421 22.624 102.409 22.2076C101.397 21.7912 100.312 21.5849 99.2175 21.6014C98.1118 21.5785 97.0135 21.7861 95.9924 22.2109C94.9713 22.6357 94.0499 23.2684 93.2867 24.0688C92.4924 24.8605 91.868 25.8058 91.4515 26.8471C91.035 27.8883 90.8352 29.0036 90.8643 30.1247C90.8307 31.2538 91.0282 32.3779 91.4448 33.4279C91.8613 34.4779 92.4881 35.4316 93.2867 36.2306C94.8767 37.7866 97.0128 38.6579 99.2375 38.6579C101.462 38.6579 103.598 37.7866 105.188 36.2306L105.173 36.2456Z" fill="#383A47"/>
<path d="M142.525 25.2949C144.732 27.6773 145.813 30.6602 145.813 34.1686C145.879 37.4695 144.687 40.6721 142.48 43.1273C141.441 44.301 140.16 45.2341 138.724 45.8616C137.288 46.4892 135.733 46.796 134.166 46.7609C131.651 46.8132 129.214 45.8812 127.375 44.1633V55.9798H119.712V22.267H127.245V24.4741C128.14 23.5597 129.212 22.8383 130.397 22.3546C131.581 21.8708 132.852 21.6349 134.131 21.6614C135.711 21.6185 137.28 21.9216 138.73 22.5492C140.18 23.1769 141.475 24.114 142.525 25.2949ZM132.655 28.7583C131.933 28.7456 131.216 28.8801 130.547 29.1535C129.879 29.4269 129.273 29.8336 128.767 30.3486C128.261 30.8637 127.865 31.4765 127.603 32.1496C127.341 32.8226 127.219 33.5419 127.245 34.2637C127.222 35.7071 127.76 37.1031 128.746 38.1575C129.246 38.6834 129.851 39.0979 130.522 39.3739C131.193 39.6499 131.915 39.7811 132.64 39.759C133.359 39.7844 134.075 39.6544 134.739 39.378C135.403 39.1017 136 38.6853 136.489 38.1575C137.475 37.1031 138.013 35.7071 137.99 34.2637C138.02 31.1356 135.768 28.7583 132.655 28.7583Z" fill="#383A47"/>
<path d="M157.369 46.1553H149.707V22.267H157.369V46.1553Z" fill="#383A47"/>
<path d="M161.999 46.1553V22.267H169.441V25.5952C170.612 23.348 173.445 21.5913 176.948 21.5913C179.379 21.5456 181.728 22.4632 183.485 24.1438C185.256 25.8304 186.167 28.2978 186.167 31.4609V46.1553H178.485V33.5329C178.485 30.4149 176.883 28.5981 174.286 28.5981C171.518 28.5981 169.616 30.6301 169.616 33.7482V46.1553H161.999Z" fill="#383A47"/>
<path d="M193.189 43.1673C192.019 41.9925 191.097 40.5935 190.481 39.0541C189.864 37.5146 189.565 35.8666 189.601 34.2086C189.565 32.5507 189.865 30.9027 190.481 29.3633C191.098 27.8239 192.019 26.4249 193.189 25.2499C195.616 22.7825 198.729 21.5713 202.583 21.5713C206.437 21.5713 209.59 22.7825 211.972 25.2499C213.159 26.4152 214.094 27.8114 214.72 29.3523C215.346 30.8931 215.649 32.5459 215.611 34.2086C215.649 35.8713 215.346 37.5242 214.72 39.0651C214.094 40.606 213.159 42.0022 211.972 43.1673C209.595 45.5897 206.437 46.8059 202.583 46.8059C198.729 46.8059 195.626 45.5897 193.189 43.1673ZM206.437 38.1024C206.945 37.5834 207.345 36.968 207.612 36.2925C207.879 35.617 208.009 34.8949 207.993 34.1686C207.996 33.4573 207.858 32.7526 207.587 32.095C207.316 31.4374 206.918 30.8399 206.415 30.337C205.912 29.8341 205.314 29.4357 204.657 29.1647C203.999 28.8938 203.294 28.7557 202.583 28.7583C201.871 28.7407 201.164 28.8743 200.507 29.1504C199.85 29.4265 199.26 29.8387 198.774 30.3599C198.267 30.8533 197.866 31.4463 197.598 32.1017C197.331 32.7571 197.201 33.4608 197.218 34.1686C197.201 34.895 197.33 35.6175 197.598 36.2931C197.865 36.9688 198.265 37.584 198.774 38.1024C199.268 38.6108 199.86 39.012 200.516 39.2807C201.171 39.5494 201.875 39.6798 202.583 39.6639C203.3 39.6809 204.012 39.5511 204.676 39.2825C205.341 39.014 205.943 38.6124 206.447 38.1024H206.437Z" fill="#383A47"/>
<path d="M219.339 46.1553V22.267H226.652V25.2099C228.153 22.8275 230.29 21.6164 233.018 21.6164C234.054 21.611 235.079 21.8331 236.021 22.267L235.395 29.5291C234.378 29.1678 233.307 28.98 232.227 28.9735C228.724 28.9735 226.947 31.2658 226.947 35.8552V46.1553H219.339Z" fill="#383A47"/>
<path d="M39.5692 53.2772C42.1497 53.2844 44.6579 52.4244 46.691 50.8351C48.7241 49.2459 50.1642 47.0196 50.7801 44.5136C51.0336 43.23 51.3458 41.4055 51.2712 40.0993L48 40L45.0145 40.0993L45.0145 42.1163C45.0048 43.4739 44.4764 44.7764 43.5375 45.7571C42.5987 46.7378 41.3205 47.3225 39.9646 47.3914C36.331 47.4865 32.6925 47.4365 29.059 47.4365C24.3143 47.4365 19.573 47.4198 14.8351 47.3864C14.2827 47.3724 13.733 47.4677 13.2176 47.667C12.7022 47.8663 12.2314 48.1655 11.8322 48.5476C9.93031 50.2943 8.00844 52.051 6.06154 53.7676C5.93466 53.9342 5.76009 54.0581 5.56105 54.123L5.57607 46.5957C5.57607 38.7981 5.62612 31.0005 5.55105 23.2079C5.52756 22.5385 5.64143 21.8714 5.88562 21.2477C6.12981 20.624 6.49916 20.0569 6.9709 19.5815C7.44263 19.106 8.00676 18.7321 8.62849 18.483C9.25023 18.2339 9.91641 18.1147 10.586 18.1329C14.0143 18.173 17.5667 18.248 21 18.248C21.2072 18.2456 21.3464 18.2705 21.4354 18.3457L21.5706 12.7123V12.7123C21.3878 12.7377 21.1846 12.7377 21 12.7377C17.4365 12.7377 13.689 12.6225 10.1305 12.6225C8.7743 12.6035 7.4313 12.8909 6.20168 13.4634C2.19277 15.3902 0.0506848 18.5784 0.0256604 23.0227C0.00063603 31.1956 0.000636029 39.3486 0.000636029 47.5065V60.4391C-0.0120046 61.0533 0.164037 61.6567 0.505014 62.1677C0.845991 62.6787 1.3355 63.0728 1.90749 63.2969C3.11367 63.8425 4.10464 63.4221 5.02053 62.5662C8.22865 59.5783 11.4668 56.6354 14.6799 53.6325C14.826 53.4927 14.9989 53.3838 15.1881 53.3124C15.3773 53.2411 15.579 53.2086 15.781 53.2171C23.7121 53.2571 31.6415 53.2772 39.5692 53.2772Z" fill="#C64C3A"/>
<path d="M57.5754 34.9118C58.1396 35.1444 58.6495 35.4911 59.0732 35.9303C60.4746 37.3366 61.906 38.718 63.3374 40.0993C64.1882 40.9251 65.064 41.7359 65.9449 42.5767C66.0528 42.3565 66.0879 42.1076 66.045 41.866C66.045 38.1374 66.045 34.4088 66.045 30.6751C66.045 23.7384 66.045 16.8016 66.045 9.86486C66.045 7.36242 64.3183 5.56066 61.901 5.56066C51.681 5.56066 41.4627 5.56066 31.2461 5.56066C30.6923 5.55265 30.1426 5.65531 29.629 5.86262C29.1155 6.06993 28.6485 6.37771 28.2555 6.7679C27.8625 7.1581 27.5514 7.62285 27.3405 8.1349C27.1295 8.64694 27.0229 9.19596 27.027 9.74975C27.027 10.4254 27.181 11.2162 27.151 11.8918C27.121 12.3923 27.2961 12.5425 27.8116 12.5375L21.5706 12.7123C21.8831 12.6689 22.1357 12.5512 22.1325 12.2322C22.0507 10.8292 21.4485 9.15116 21.6667 7.76281C22.1282 5.82923 23.1498 4.07472 24.6036 2.71888C26.0573 1.36305 27.8787 0.466126 29.8397 0.140382C30.4005 0.0659024 30.9657 0.0291174 31.5314 0.0302748C41.5411 0.0302748 51.5509 0.110353 61.5606 0.000245486C62.8831 -0.0090164 64.1943 0.243887 65.4185 0.744344C66.6427 1.2448 67.7556 1.98289 68.6928 2.91596C69.6301 3.84903 70.3731 4.95858 70.8791 6.18051C71.385 7.40243 71.6438 8.7125 71.6404 10.035C71.6154 13.2782 71.6404 16.5414 71.6404 19.7645L71.6254 28.9284C71.6254 35.3781 71.6254 41.8277 71.6254 48.2773C71.6472 48.8231 71.5339 49.3659 71.2956 49.8575C71.0572 50.349 70.7012 50.7741 70.2591 51.095C69.7011 51.5247 69.0038 51.7328 68.3016 51.6792C67.5993 51.6256 66.9418 51.3141 66.4554 50.8048C65.014 49.4685 63.6126 48.0871 62.1912 46.7258L55.3696 40.1894C55.2968 40.1064 55.2065 40.0405 55.1053 39.9964C55.0041 39.9523 54.8944 39.931 54.784 39.9342C53.8558 39.9342 52.1733 40.1012 51.2712 40.0993V34.71C52.4172 34.6574 54.6197 34.5832 55.795 34.5789C56.4051 34.5659 57.0112 34.6793 57.5754 34.9118Z" fill="#C64C3A"/>
<path d="M21.5705 12.7123L27.8116 12.5375C31.7304 12.5375 35.6493 12.5375 39.5681 12.5375C42.1201 12.4987 44.6145 13.2968 46.67 14.8097C49.758 17.1319 51.1093 20.3451 51.1744 24.1187C51.2395 27.437 51.1744 30.7552 51.1744 34.0734C51.1744 34.5739 51.2295 34.73 51.76 34.71C51.9553 34.7028 51.08 34.7188 51.2712 34.71V40.0993C51.1518 40.0991 51.8822 40.0545 51.76 40.0493C51.2595 40.0493 51.0404 40.0893 51.0454 40.5448C51.0468 40.5676 51.0441 40.0764 51.0454 40.0993H48H45.0145C45.0145 39.9732 45.0145 40.6704 45.0145 40.5448C45.0145 40.0243 45.0034 40.0993 44.568 40.0993C41.3999 40.0993 38.2318 40.0993 35.0587 40.0993C33.086 40.1131 31.1317 39.7195 29.3181 38.9432C24.5685 36.9412 21.3103 32.7021 21.5355 27.2418C21.6456 24.4341 21.5355 21.6213 21.5705 18.8086C21.5705 18.5725 21.5334 18.4285 21.4354 18.3457L21.5705 12.7123ZM45.1385 21.8265C45.1197 21.4014 44.9995 20.987 44.788 20.6179C44.5764 20.2487 44.2796 19.9355 43.9223 19.7044C43.3462 19.2857 42.6347 19.0967 41.9267 19.1745C41.2187 19.2522 40.5651 19.5911 40.0936 20.1249C37.9115 22.292 35.7444 24.4741 33.5873 26.6312C33.0517 27.1667 33.0467 27.1617 32.4862 26.6312C31.9256 26.1007 31.3851 25.5051 30.7945 24.9846C30.2523 24.4536 29.5214 24.1598 28.7625 24.1678C28.0036 24.1758 27.279 24.4849 26.7481 25.0271C26.2171 25.5694 25.9233 26.3003 25.9313 27.0592C25.9393 27.818 26.2484 28.5426 26.7906 29.0736C28.1586 30.4883 29.5533 31.8763 30.9747 33.2376C31.2545 33.5252 31.5891 33.7537 31.9588 33.9098C32.3284 34.0659 32.7256 34.1463 33.1268 34.1463C33.528 34.1463 33.9252 34.0659 34.2948 33.9098C34.6645 33.7537 34.9991 33.5252 35.2789 33.2376C38.3219 30.2347 41.3298 27.2018 44.3477 24.1738C44.6417 23.8632 44.8646 23.4924 45.0011 23.0871C45.1377 22.6818 45.1845 22.2517 45.1385 21.8265Z" fill="#038788"/>
<path d="M153.35 20.5603C156.225 20.5603 158.555 18.2299 158.555 15.3553C158.555 12.4806 156.225 10.1502 153.35 10.1502C150.476 10.1502 148.145 12.4806 148.145 15.3553C148.145 18.2299 150.476 20.5603 153.35 20.5603Z" fill="#038788"/>
<path d="M132.41 52.2012L133.811 56.0499L135.228 52.2012H135.703L134.086 56.5554H133.546L131.934 52.1961L132.41 52.2012Z" fill="#4C4C4C"/>
<path d="M138.701 53.3473C138.955 53.4832 139.163 53.6924 139.297 53.9479C139.441 54.2342 139.517 54.5505 139.517 54.8713C139.517 55.1921 139.441 55.5084 139.297 55.7947C139.161 56.0477 138.954 56.255 138.701 56.3902C138.435 56.5313 138.139 56.6051 137.838 56.6051C137.537 56.6051 137.24 56.5313 136.974 56.3902C136.719 56.2528 136.508 56.0442 136.369 55.7897C136.218 55.5085 136.142 55.1929 136.148 54.8738C136.141 54.5513 136.217 54.2325 136.369 53.9479C136.508 53.6933 136.719 53.4847 136.974 53.3473C137.242 53.2122 137.538 53.1419 137.838 53.1419C138.137 53.1419 138.433 53.2122 138.701 53.3473ZM137.199 53.6676C137.006 53.769 136.848 53.9259 136.744 54.118C136.62 54.3502 136.56 54.6109 136.569 54.8738C136.562 55.1333 136.622 55.3902 136.744 55.6195C136.849 55.8106 137.007 55.967 137.199 56.0699C137.391 56.1706 137.604 56.2221 137.82 56.2201C138.031 56.2215 138.24 56.1699 138.426 56.0699C138.618 55.967 138.776 55.8106 138.881 55.6195C139.003 55.3902 139.063 55.1333 139.056 54.8738C139.065 54.6109 139.005 54.3502 138.881 54.118C138.778 53.9259 138.619 53.769 138.426 53.6676C138.24 53.5676 138.031 53.516 137.82 53.5174C137.611 53.5187 137.405 53.5701 137.219 53.6676H137.199Z" fill="#4C4C4C"/>
<path d="M142.199 53.4324C142.426 53.6335 142.571 53.9117 142.605 54.2131H142.194C142.173 54.0059 142.077 53.8136 141.924 53.6726C141.752 53.5258 141.53 53.4506 141.303 53.4624C141.114 53.4508 140.927 53.5096 140.778 53.6275C140.716 53.6811 140.667 53.7482 140.635 53.8237C140.603 53.8992 140.588 53.9811 140.593 54.063C140.59 54.1225 140.599 54.182 140.619 54.2379C140.64 54.2939 140.672 54.345 140.713 54.3883C140.797 54.4742 140.9 54.5393 141.013 54.5785C141.133 54.6185 141.293 54.6636 141.514 54.7086C141.716 54.7552 141.915 54.8154 142.109 54.8888C142.26 54.947 142.393 55.0436 142.495 55.169C142.607 55.3111 142.666 55.4884 142.66 55.6695C142.663 55.7944 142.637 55.9183 142.585 56.0319C142.533 56.1454 142.456 56.2457 142.359 56.3252C142.134 56.5054 141.852 56.5978 141.564 56.5854C141.223 56.5995 140.888 56.4971 140.613 56.2951C140.489 56.2003 140.387 56.0813 140.311 55.9453C140.235 55.8093 140.188 55.6593 140.172 55.5044H140.593C140.602 55.6101 140.633 55.7129 140.682 55.8067C140.732 55.9004 140.801 55.9831 140.883 56.0499C141.08 56.1982 141.323 56.2726 141.569 56.2601C141.751 56.2712 141.93 56.2121 142.069 56.095C142.129 56.0398 142.176 55.9723 142.207 55.8971C142.238 55.8219 142.253 55.7408 142.249 55.6595C142.253 55.5327 142.208 55.4093 142.124 55.3142C142.039 55.2267 141.934 55.1599 141.819 55.119C141.699 55.079 141.534 55.0289 141.318 54.9789C141.12 54.9358 140.924 54.879 140.733 54.8087C140.588 54.7491 140.46 54.6566 140.358 54.5384C140.247 54.3957 140.192 54.218 140.202 54.0379C140.197 53.9101 140.223 53.7829 140.276 53.6664C140.329 53.55 140.408 53.4475 140.508 53.3673C140.742 53.1877 141.034 53.0989 141.328 53.117C141.648 53.1113 141.958 53.2236 142.199 53.4324Z" fill="#4C4C4C"/>
<path d="M147.595 53.4824C147.87 53.7082 148.049 54.0303 148.095 54.3833H147.645C147.627 54.2578 147.585 54.1371 147.52 54.028C147.456 53.9189 147.371 53.8236 147.269 53.7477C147.07 53.6124 146.838 53.5335 146.597 53.5194C146.357 53.5053 146.117 53.5565 145.903 53.6676C145.714 53.7697 145.56 53.9268 145.463 54.118C145.358 54.3544 145.304 54.6102 145.304 54.8688C145.304 55.1274 145.358 55.3831 145.463 55.6195C145.56 55.8108 145.714 55.9678 145.903 56.0699C146.117 56.181 146.357 56.2322 146.597 56.2181C146.838 56.204 147.07 56.1251 147.269 55.9899C147.371 55.9139 147.456 55.8186 147.52 55.7095C147.585 55.6004 147.627 55.4797 147.645 55.3542H148.095C148.048 55.7082 147.869 56.0315 147.595 56.2601C147.29 56.4942 146.913 56.6145 146.529 56.6005C146.23 56.6058 145.935 56.5334 145.673 56.3902C145.422 56.2525 145.219 56.0435 145.087 55.7897C144.949 55.5015 144.877 55.1859 144.877 54.8663C144.877 54.5466 144.949 54.231 145.087 53.9429C145.219 53.689 145.422 53.48 145.673 53.3423C145.935 53.2007 146.23 53.1299 146.529 53.1371C146.914 53.1219 147.292 53.2443 147.595 53.4824Z" fill="#4C4C4C"/>
<path d="M149.331 51.9809V56.5554H148.891V51.9759L149.331 51.9809Z" fill="#4C4C4C"/>
<path d="M150.262 51.9659C150.293 51.938 150.33 51.9165 150.369 51.9027C150.409 51.889 150.451 51.8832 150.492 51.8858C150.577 51.8817 150.659 51.9104 150.723 51.9659C150.751 51.994 150.773 52.0277 150.788 52.0647C150.802 52.1017 150.809 52.1413 150.808 52.1811C150.809 52.2201 150.802 52.2589 150.787 52.295C150.772 52.3312 150.75 52.364 150.723 52.3913C150.659 52.4469 150.577 52.4756 150.492 52.4714C150.451 52.474 150.409 52.4683 150.369 52.4545C150.33 52.4408 150.293 52.4193 150.262 52.3913C150.233 52.365 150.209 52.3325 150.194 52.2962C150.178 52.2599 150.171 52.2206 150.172 52.1811C150.17 52.1408 150.178 52.1007 150.193 52.0635C150.209 52.0263 150.232 51.993 150.262 51.9659ZM150.708 53.1821V56.5554H150.267V53.1771L150.708 53.1821Z" fill="#4C4C4C"/>
<path d="M153.886 56.0149C153.986 55.9425 154.07 55.8507 154.134 55.7449C154.197 55.6391 154.239 55.5215 154.256 55.3993H154.717C154.663 55.7413 154.484 56.0513 154.216 56.2701C153.911 56.4998 153.537 56.6181 153.155 56.6054C152.856 56.612 152.561 56.5395 152.299 56.3952C152.049 56.2575 151.845 56.0485 151.714 55.7946C151.575 55.5065 151.503 55.1909 151.503 54.8712C151.503 54.5516 151.575 54.236 151.714 53.9478C151.845 53.694 152.049 53.485 152.299 53.3473C152.561 53.2045 152.857 53.1338 153.155 53.1421C153.454 53.1325 153.749 53.2034 154.011 53.3473C154.243 53.4744 154.434 53.6655 154.561 53.8978C154.687 54.1299 154.752 54.3897 154.752 54.6535C154.752 54.7591 154.743 54.8646 154.727 54.9688H151.929C151.925 55.2184 151.986 55.4648 152.104 55.6845C152.208 55.8669 152.363 56.0148 152.549 56.11C152.731 56.2004 152.932 56.2467 153.135 56.2451C153.404 56.2523 153.667 56.1715 153.886 56.0149ZM152.539 53.6275C152.354 53.722 152.199 53.868 152.094 54.0479C151.976 54.2627 151.914 54.5037 151.914 54.7486H154.301C154.318 54.5072 154.265 54.2661 154.151 54.0529C154.053 53.8712 153.901 53.7244 153.716 53.6325C153.532 53.5415 153.33 53.4952 153.125 53.4974C152.922 53.4955 152.722 53.54 152.539 53.6275Z" fill="#4C4C4C"/>
<path d="M158.155 53.4974C158.285 53.647 158.385 53.8208 158.447 54.0089C158.51 54.197 158.535 54.3957 158.52 54.5935V56.5554H158.095V54.6185C158.114 54.311 158.013 54.008 157.815 53.7727C157.715 53.6737 157.596 53.5967 157.465 53.5467C157.334 53.4967 157.194 53.4748 157.054 53.4824C156.904 53.4751 156.754 53.5003 156.615 53.5565C156.476 53.6127 156.351 53.6984 156.248 53.8077C156.029 54.0761 155.922 54.4183 155.948 54.7637V56.5554H155.507V53.1771H155.948V54.0079C156.02 53.7381 156.187 53.5035 156.418 53.3473C156.648 53.1915 156.921 53.1111 157.199 53.1171C157.376 53.1116 157.552 53.1425 157.716 53.2079C157.881 53.2734 158.03 53.3719 158.155 53.4974Z" fill="#4C4C4C"/>
<path d="M160.973 56.175V56.5554H160.572C160.308 56.5743 160.047 56.492 159.842 56.3252C159.751 56.2168 159.684 56.0914 159.642 55.9565C159.601 55.8216 159.587 55.6798 159.601 55.5394V53.5375H159.101V53.1571H159.601V52.3063H160.042V53.1571H160.968V53.5525H160.042V55.5544C160.02 55.7317 160.066 55.9108 160.172 56.0549C160.301 56.1554 160.464 56.202 160.627 56.185L160.973 56.175Z" fill="#4C4C4C"/>
<path d="M163.59 53.4324C163.817 53.6335 163.962 53.9117 163.996 54.2131H163.585C163.564 54.0059 163.468 53.8136 163.315 53.6726C163.143 53.5258 162.92 53.4506 162.694 53.4624C162.505 53.4508 162.318 53.5096 162.169 53.6275C162.107 53.6811 162.058 53.7482 162.026 53.8237C161.993 53.8992 161.979 53.9811 161.984 54.063C161.981 54.1225 161.99 54.182 162.01 54.2379C162.031 54.2939 162.063 54.345 162.104 54.3883C162.188 54.4742 162.29 54.5393 162.404 54.5785C162.524 54.6185 162.684 54.6636 162.905 54.7086C163.107 54.7552 163.306 54.8154 163.5 54.8888C163.651 54.9491 163.785 55.0453 163.89 55.169C163.999 55.3127 164.056 55.4893 164.051 55.6695C164.053 55.7944 164.028 55.9183 163.976 56.0319C163.924 56.1454 163.847 56.2457 163.75 56.3252C163.525 56.5054 163.243 56.5978 162.955 56.5854C162.614 56.5995 162.278 56.4971 162.004 56.2951C161.88 56.2003 161.777 56.0813 161.702 55.9453C161.626 55.8093 161.579 55.6593 161.563 55.5044H161.984C161.993 55.6101 162.023 55.7129 162.073 55.8067C162.123 55.9004 162.191 55.9831 162.274 56.0499C162.471 56.1982 162.713 56.2726 162.96 56.2601C163.141 56.2712 163.321 56.2121 163.46 56.095C163.52 56.0398 163.567 55.9723 163.598 55.8971C163.629 55.8219 163.644 55.7408 163.64 55.6595C163.644 55.5327 163.599 55.4093 163.515 55.3142C163.43 55.2267 163.325 55.1599 163.21 55.119C163.09 55.079 162.925 55.0289 162.709 54.9789C162.51 54.9358 162.315 54.879 162.124 54.8087C161.979 54.7491 161.851 54.6566 161.748 54.5384C161.638 54.3957 161.583 54.218 161.593 54.0379C161.59 53.9103 161.615 53.7834 161.668 53.6672C161.721 53.5509 161.8 53.4483 161.899 53.3673C162.133 53.1877 162.425 53.0989 162.719 53.117C163.039 53.1113 163.349 53.2236 163.59 53.4324Z" fill="#4C4C4C"/>
<path d="M169.056 53.3473C169.295 53.4894 169.488 53.698 169.611 53.9479C169.751 54.236 169.82 54.5536 169.811 54.8738C169.82 55.1908 169.751 55.505 169.611 55.7897C169.488 56.0408 169.293 56.2498 169.051 56.3902C168.803 56.5343 168.521 56.6087 168.235 56.6055C167.919 56.6149 167.61 56.5199 167.354 56.3352C167.114 56.1614 166.938 55.9134 166.853 55.6295V58.1319H166.418V53.1571H166.853V54.083C166.939 53.8011 167.115 53.5551 167.354 53.3823C167.61 53.199 167.92 53.1058 168.235 53.1171C168.524 53.1175 168.808 53.1971 169.056 53.3473ZM167.469 53.6876C167.275 53.8073 167.12 53.9813 167.024 54.1881C166.918 54.4093 166.863 54.6513 166.863 54.8963C166.863 55.1413 166.918 55.3833 167.024 55.6045C167.123 55.8015 167.278 55.9651 167.469 56.0749C167.665 56.1893 167.888 56.2482 168.115 56.2451C168.284 56.2534 168.453 56.2256 168.611 56.1635C168.769 56.1014 168.912 56.0063 169.031 55.8848C169.257 55.6003 169.38 55.2474 169.38 54.8838C169.38 54.5201 169.257 54.1672 169.031 53.8828C168.912 53.7612 168.769 53.6662 168.611 53.6041C168.453 53.5419 168.284 53.5141 168.115 53.5224C167.889 53.5201 167.666 53.577 167.469 53.6876Z" fill="#4C4C4C"/>
<path d="M172.889 53.4073C173.129 53.5793 173.305 53.8256 173.39 54.108V53.1821H173.815V56.5554H173.39V55.6245C173.306 55.9091 173.13 56.1575 172.889 56.3302C172.635 56.5142 172.327 56.6092 172.013 56.6005C171.725 56.6036 171.442 56.5292 171.193 56.3852C170.949 56.2463 170.754 56.0369 170.632 55.7847C170.492 55.5 170.424 55.1858 170.432 54.8688C170.424 54.5486 170.492 54.231 170.632 53.9429C170.754 53.6906 170.949 53.4812 171.193 53.3423C171.442 53.2004 171.726 53.1294 172.013 53.1371C172.327 53.128 172.635 53.223 172.889 53.4073ZM171.213 53.9078C170.983 54.1907 170.857 54.5442 170.857 54.9088C170.857 55.2734 170.983 55.6269 171.213 55.9098C171.33 56.0307 171.472 56.1254 171.629 56.1875C171.786 56.2496 171.955 56.2778 172.123 56.2701C172.35 56.2745 172.574 56.2156 172.769 56.1C172.963 55.9919 173.12 55.828 173.22 55.6295C173.328 55.4092 173.385 55.1669 173.385 54.9213C173.385 54.6757 173.328 54.4334 173.22 54.2131C173.123 54.005 172.966 53.8306 172.769 53.7126C172.573 53.6009 172.35 53.5439 172.123 53.5475C171.957 53.5366 171.789 53.5608 171.632 53.6186C171.476 53.6764 171.333 53.7664 171.213 53.8828V53.9078Z" fill="#4C4C4C"/>
<path d="M175.672 53.3173C175.916 53.1807 176.193 53.1132 176.473 53.1221V53.5925H176.328C176.035 53.581 175.748 53.6731 175.517 53.8528C175.402 53.9617 175.313 54.0954 175.258 54.2437C175.202 54.392 175.181 54.551 175.197 54.7086V56.5554H174.756V53.1771H175.172V53.8778C175.271 53.64 175.447 53.4426 175.672 53.3173Z" fill="#4C4C4C"/>
<path d="M177.479 51.9809V56.5554H177.038V51.9759L177.479 51.9809Z" fill="#4C4C4C"/>
<path d="M180.677 56.0149C180.778 55.9434 180.863 55.8518 180.926 55.7458C180.99 55.6399 181.031 55.5219 181.047 55.3993H181.508C181.456 55.7421 181.277 56.0529 181.007 56.2701C180.702 56.4998 180.328 56.6181 179.946 56.6054C179.647 56.6108 179.352 56.5384 179.09 56.3952C178.84 56.2575 178.636 56.0485 178.505 55.7946C178.366 55.5065 178.294 55.1909 178.294 54.8712C178.294 54.5516 178.366 54.236 178.505 53.9478C178.636 53.694 178.84 53.485 179.09 53.3473C179.353 53.2057 179.648 53.1349 179.946 53.1421C180.245 53.1325 180.54 53.2034 180.802 53.3473C181.034 53.4744 181.225 53.6655 181.352 53.8978C181.478 54.1299 181.543 54.3897 181.543 54.6535C181.543 54.7591 181.534 54.8646 181.518 54.9688H178.675C178.671 55.2184 178.732 55.4648 178.85 55.6845C178.954 55.8669 179.108 56.0148 179.295 56.11C179.477 56.2004 179.678 56.2467 179.881 56.2451C180.165 56.2626 180.446 56.1812 180.677 56.0149ZM179.33 53.6275C179.145 53.7209 178.992 53.8672 178.89 54.0479C178.768 54.2613 178.704 54.5029 178.705 54.7486H181.092C181.114 54.507 181.067 54.2641 180.957 54.0479C180.859 53.8662 180.707 53.7194 180.522 53.6275C180.338 53.5365 180.136 53.4902 179.931 53.4924C179.716 53.4865 179.503 53.5329 179.31 53.6275H179.33Z" fill="#4C4C4C"/>
<path d="M184.931 53.4974C185.061 53.6469 185.161 53.8208 185.223 54.0089C185.286 54.197 185.311 54.3957 185.296 54.5935V56.5554H184.871V54.6185C184.89 54.311 184.79 54.008 184.591 53.7727C184.491 53.6737 184.372 53.5967 184.241 53.5467C184.11 53.4967 183.97 53.4748 183.83 53.4824C183.68 53.475 183.53 53.5003 183.391 53.5565C183.252 53.6127 183.127 53.6984 183.024 53.8077C182.805 54.0761 182.698 54.4183 182.724 54.7637V56.5554H182.283V53.1771H182.724V54.0079C182.796 53.7381 182.963 53.5035 183.194 53.3473C183.424 53.1915 183.697 53.1111 183.975 53.117C184.152 53.1109 184.328 53.1416 184.493 53.2071C184.657 53.2725 184.807 53.3714 184.931 53.4974Z" fill="#4C4C4C"/>
<path d="M187.744 56.175V56.5554H187.343C187.079 56.5743 186.818 56.492 186.613 56.3252C186.522 56.2168 186.455 56.0914 186.413 55.9565C186.372 55.8216 186.358 55.6798 186.372 55.5394V53.5375H185.872V53.1571H186.372V52.3063H186.813V53.1571H187.739V53.5525H186.813V55.5544C186.791 55.7317 186.837 55.9108 186.943 56.0549C187.072 56.1554 187.236 56.202 187.398 56.185L187.744 56.175Z" fill="#4C4C4C"/>
<path d="M188.76 56.6355C188.767 56.8036 188.718 56.9693 188.62 57.1059C188.567 57.1678 188.501 57.216 188.426 57.2465C188.351 57.277 188.27 57.2889 188.189 57.2811V57.0809C188.229 57.0843 188.269 57.0784 188.307 57.0636C188.344 57.0489 188.377 57.0257 188.404 56.9958C188.458 56.9223 188.483 56.8314 188.474 56.7406V56.6905H188.184V56.1901H188.685C188.732 56.3339 188.757 56.4841 188.76 56.6355Z" fill="#4C4C4C"/>
<path d="M194.305 52.3713C194.577 52.5143 194.801 52.7357 194.946 53.0069C195.097 53.3024 195.173 53.6309 195.166 53.9629C195.163 54.5378 194.988 55.0988 194.665 55.5744C194.444 55.8936 194.149 56.1546 193.805 56.3352C193.457 56.5205 193.068 56.6151 192.673 56.6104C192.326 56.6225 191.981 56.5449 191.673 56.3852C191.402 56.2387 191.181 56.0159 191.037 55.7446C190.887 55.4521 190.811 55.1273 190.817 54.7987C190.816 54.6308 190.832 54.4633 190.862 54.2982C190.929 53.8987 191.085 53.5192 191.317 53.1871C191.54 52.8638 191.84 52.6006 192.189 52.4207C192.538 52.2409 192.926 52.15 193.319 52.1561C193.661 52.1425 194 52.2166 194.305 52.3713ZM192.453 52.8718C192.193 53.0144 191.97 53.2168 191.803 53.4624C191.622 53.731 191.499 54.0344 191.442 54.3532C191.418 54.4837 191.407 54.616 191.407 54.7486C191.395 54.9309 191.42 55.1138 191.481 55.2859C191.542 55.4581 191.638 55.6159 191.763 55.7496C191.891 55.8723 192.042 55.9676 192.208 56.0295C192.374 56.0915 192.551 56.1189 192.729 56.11C193.017 56.1117 193.302 56.0393 193.554 55.8998C193.818 55.7589 194.043 55.5563 194.21 55.3092C194.395 55.0436 194.517 54.7387 194.565 54.4183C194.591 54.288 194.604 54.1557 194.605 54.0229C194.619 53.8458 194.594 53.6678 194.532 53.5011C194.471 53.3345 194.374 53.1831 194.248 53.0572C194.123 52.9313 193.972 52.834 193.806 52.7717C193.639 52.7095 193.461 52.6839 193.284 52.6966C192.997 52.6868 192.712 52.7469 192.453 52.8718Z" fill="#038788"/>
<path d="M199.01 53.4724C199.13 53.6028 199.223 53.7558 199.283 53.9225C199.343 54.0893 199.369 54.2663 199.36 54.4433C199.358 54.5843 199.345 54.725 199.32 54.8637C199.27 55.1952 199.147 55.5114 198.96 55.7896C198.792 56.041 198.565 56.2472 198.299 56.3902C198.039 56.5314 197.749 56.6054 197.453 56.6054C197.167 56.6189 196.885 56.5302 196.657 56.3552C196.458 56.1894 196.33 55.9525 196.302 55.6946L195.867 58.167H195.301L196.187 53.1621H196.747L196.592 54.053C196.726 53.7823 196.932 53.5537 197.188 53.3923C197.453 53.2266 197.761 53.1414 198.074 53.1471C198.244 53.1353 198.414 53.1581 198.575 53.214C198.736 53.2699 198.884 53.3578 199.01 53.4724ZM198.279 55.7746C198.537 55.5343 198.705 55.2128 198.754 54.8637C198.771 54.7645 198.779 54.664 198.779 54.5635C198.787 54.4361 198.769 54.3086 198.725 54.1888C198.681 54.0691 198.613 53.9597 198.524 53.8678C198.429 53.7823 198.317 53.7167 198.196 53.6746C198.075 53.6325 197.946 53.6148 197.818 53.6225C197.602 53.6211 197.389 53.6727 197.198 53.7727C196.997 53.8736 196.825 54.0233 196.697 54.2081C196.564 54.4055 196.473 54.629 196.432 54.8637C196.413 54.956 196.405 55.05 196.407 55.144C196.4 55.2732 196.42 55.4023 196.464 55.5237C196.509 55.645 196.578 55.756 196.667 55.8497C196.76 55.9368 196.87 56.0047 196.989 56.0494C197.109 56.094 197.236 56.1146 197.363 56.11C197.7 56.1217 198.029 56.0014 198.279 55.7746Z" fill="#038788"/>
<path d="M200.912 53.1621L200.311 56.5604H199.75L200.346 53.1621H200.912ZM200.546 51.9409C200.633 51.8608 200.748 51.8177 200.866 51.8208C200.955 51.8172 201.042 51.8457 201.112 51.9009C201.139 51.9263 201.161 51.9573 201.176 51.9919C201.19 52.0264 201.198 52.0636 201.197 52.1011C201.198 52.1568 201.187 52.2122 201.165 52.2632C201.142 52.3142 201.109 52.3597 201.067 52.3964C200.98 52.4765 200.865 52.5196 200.746 52.5165C200.657 52.5225 200.569 52.4938 200.501 52.4364C200.473 52.4114 200.451 52.3804 200.436 52.3458C200.421 52.3112 200.415 52.2738 200.416 52.2362C200.415 52.1805 200.426 52.1253 200.449 52.0743C200.471 52.0233 200.504 51.9778 200.546 51.9409Z" fill="#038788"/>
<path d="M204.41 53.3923C204.512 53.5008 204.591 53.6293 204.641 53.7698C204.691 53.9102 204.711 54.0595 204.7 54.2081C204.701 54.3356 204.691 54.4628 204.67 54.5885L204.32 56.5604H203.754L204.095 54.6386C204.105 54.5454 204.105 54.4514 204.095 54.3583C204.102 54.253 204.087 54.1473 204.051 54.0481C204.015 53.9489 203.958 53.8585 203.884 53.7827C203.721 53.6423 203.509 53.5706 203.294 53.5825C203 53.5789 202.716 53.6861 202.498 53.8828C202.263 54.1194 202.113 54.4276 202.073 54.7587L201.752 56.5855H201.197L201.797 53.1871H202.368L202.223 53.9879C202.349 53.7246 202.549 53.5037 202.798 53.3523C203.042 53.2076 203.321 53.1315 203.604 53.1321C203.749 53.1196 203.895 53.1362 204.033 53.1809C204.172 53.2256 204.3 53.2975 204.41 53.3923Z" fill="#038788"/>
<path d="M208.084 53.2872C208.297 53.3992 208.472 53.5739 208.584 53.7877C208.713 54.0146 208.777 54.2726 208.769 54.5335C208.768 54.6662 208.754 54.7985 208.729 54.9288C208.679 55.256 208.548 55.5655 208.349 55.8297C208.165 56.0811 207.923 56.2838 207.643 56.4203C207.361 56.5569 207.051 56.6271 206.737 56.6255C206.348 56.6427 205.968 56.5081 205.676 56.2501C205.544 56.1204 205.44 55.9642 205.372 55.7917C205.304 55.6193 205.273 55.4344 205.281 55.2492C205.281 55.1199 205.292 54.9909 205.316 54.8638C205.37 54.5354 205.502 54.2248 205.701 53.9579C205.887 53.7047 206.133 53.5017 206.417 53.3673C206.699 53.2288 207.009 53.1586 207.323 53.1621C207.583 53.1428 207.843 53.1857 208.084 53.2872ZM206.672 53.7527C206.474 53.8477 206.302 53.9904 206.172 54.1681C206.028 54.3764 205.932 54.614 205.891 54.8638C205.874 54.9663 205.863 55.07 205.861 55.1741C205.853 55.3023 205.873 55.4307 205.918 55.5508C205.964 55.6708 206.035 55.7796 206.127 55.8698C206.316 56.0317 206.558 56.1174 206.807 56.11C207.009 56.1106 207.208 56.0626 207.388 55.9699C207.588 55.8771 207.76 55.734 207.888 55.5544C208.083 55.2559 208.192 54.9097 208.204 54.5535C208.212 54.424 208.193 54.2943 208.146 54.1733C208.099 54.0522 208.027 53.9429 207.933 53.8528C207.746 53.695 207.508 53.6113 207.263 53.6176C207.058 53.6163 206.856 53.6625 206.672 53.7527Z" fill="#038788"/>
<path d="M210.801 53.3072C211.047 53.1738 211.322 53.1049 211.602 53.107L211.492 53.7226H211.317C211.03 53.7152 210.748 53.7975 210.511 53.9579C210.386 54.0493 210.281 54.1653 210.203 54.2987C210.125 54.4321 210.075 54.5801 210.055 54.7336L209.735 56.5604H209.165L209.765 53.1621H210.336L210.206 53.8528C210.356 53.6248 210.561 53.4375 210.801 53.3072Z" fill="#038788"/>
<path d="M215.711 56.0149C215.811 55.9425 215.895 55.8507 215.959 55.7449C216.023 55.6391 216.064 55.5215 216.081 55.3993H216.542C216.488 55.7413 216.31 56.0513 216.041 56.2701C215.736 56.4998 215.362 56.6181 214.98 56.6054C214.68 56.6114 214.383 56.539 214.119 56.3952C213.872 56.2558 213.67 56.0471 213.539 55.7947C213.4 55.5065 213.328 55.1909 213.328 54.8713C213.328 54.5516 213.4 54.236 213.539 53.9479C213.67 53.6954 213.872 53.4867 214.119 53.3473C214.384 53.2052 214.68 53.1345 214.98 53.1421C215.279 53.1333 215.574 53.2041 215.836 53.3473C216.068 53.4744 216.259 53.6655 216.387 53.8978C216.511 54.1303 216.574 54.3901 216.572 54.6535C216.574 54.7592 216.566 54.8649 216.547 54.9688H213.754C213.748 55.2187 213.809 55.4656 213.929 55.6845C214.032 55.8657 214.185 56.0133 214.37 56.11C214.553 56.2 214.756 56.2462 214.96 56.2451C215.229 56.2523 215.493 56.1715 215.711 56.0149ZM214.365 53.6275C214.178 53.7206 214.023 53.8669 213.919 54.0479C213.801 54.2627 213.739 54.5037 213.739 54.7486H216.126C216.148 54.507 216.101 54.2641 215.991 54.0479C215.891 53.8676 215.74 53.7212 215.556 53.6275C215.37 53.5387 215.166 53.4925 214.96 53.4925C214.754 53.4925 214.551 53.5387 214.365 53.6275ZM215.996 52.1611L214.73 52.9118V52.5915L215.996 51.7958V52.1611Z" fill="#4C4C4C"/>
<path d="M219.9 53.4824C220.175 53.7082 220.354 54.0303 220.401 54.3833H219.95C219.933 54.2578 219.89 54.1371 219.826 54.028C219.761 53.9189 219.676 53.8236 219.575 53.7477C219.375 53.6124 219.143 53.5335 218.903 53.5194C218.662 53.5053 218.422 53.5565 218.208 53.6676C218.019 53.7697 217.866 53.9267 217.768 54.118C217.663 54.3544 217.609 54.6102 217.609 54.8688C217.609 55.1274 217.663 55.3831 217.768 55.6195C217.866 55.8108 218.019 55.9678 218.208 56.0699C218.422 56.181 218.662 56.2322 218.903 56.2181C219.143 56.204 219.375 56.1251 219.575 55.9898C219.676 55.9139 219.761 55.8186 219.826 55.7095C219.89 55.6004 219.933 55.4797 219.95 55.3542H220.401C220.353 55.7082 220.174 56.0315 219.9 56.2601C219.595 56.4938 219.218 56.6141 218.834 56.6004C218.535 56.6058 218.24 56.5334 217.978 56.3902C217.728 56.2525 217.524 56.0435 217.393 55.7897C217.254 55.5015 217.182 55.1859 217.182 54.8663C217.182 54.5466 217.254 54.231 217.393 53.9429C217.524 53.689 217.728 53.48 217.978 53.3423C218.241 53.2007 218.536 53.1299 218.834 53.1371C219.219 53.1227 219.597 53.245 219.9 53.4824Z" fill="#4C4C4C"/>
<path d="M223.584 53.3473C223.838 53.4855 224.046 53.694 224.184 53.9478C224.326 54.235 224.4 54.551 224.4 54.8712C224.4 55.1915 224.326 55.5075 224.184 55.7946C224.045 56.0466 223.837 56.2534 223.584 56.3902C223.32 56.5351 223.024 56.6092 222.723 56.6054C222.421 56.6085 222.123 56.5344 221.857 56.3902C221.603 56.252 221.395 56.0435 221.256 55.7896C221.103 55.5094 221.027 55.1932 221.036 54.8738C221.027 54.5511 221.103 54.2316 221.256 53.9478C221.395 53.694 221.603 53.4855 221.857 53.3473C222.123 53.2063 222.421 53.1357 222.723 53.1421C223.023 53.135 223.319 53.2057 223.584 53.3473ZM222.082 53.6676C221.887 53.7687 221.727 53.9255 221.622 54.118C221.498 54.3502 221.438 54.6108 221.447 54.8738C221.44 55.1333 221.5 55.3902 221.622 55.6195C221.729 55.8109 221.889 55.9673 222.082 56.0699C222.272 56.1686 222.482 56.2201 222.695 56.2201C222.909 56.2201 223.119 56.1686 223.308 56.0699C223.5 55.9657 223.658 55.8095 223.764 55.6195C223.884 55.3898 223.943 55.1328 223.934 54.8738C223.944 54.6113 223.886 54.3507 223.764 54.118C223.659 53.9269 223.501 53.7705 223.308 53.6676C223.119 53.5689 222.909 53.5174 222.695 53.5174C222.482 53.5174 222.272 53.5689 222.082 53.6676Z" fill="#4C4C4C"/>
<path d="M228.093 53.1821V56.5554H227.658V55.7196C227.587 55.9914 227.42 56.2282 227.187 56.3852C226.959 56.5403 226.688 56.6207 226.411 56.6155C226.233 56.623 226.055 56.5935 225.889 56.5289C225.723 56.4643 225.572 56.366 225.445 56.2401C225.315 56.0906 225.216 55.9167 225.153 55.7286C225.09 55.5405 225.066 55.3418 225.08 55.144V53.1771H225.51V55.109C225.491 55.4181 225.591 55.723 225.791 55.9598C225.89 56.0588 226.009 56.1358 226.14 56.1858C226.271 56.2358 226.411 56.2577 226.552 56.2501C226.701 56.2575 226.851 56.2322 226.99 56.176C227.129 56.1198 227.255 56.0341 227.357 55.9248C227.575 55.6579 227.683 55.3176 227.658 54.9739V53.1771L228.093 53.1821Z" fill="#4C4C4C"/>
<path d="M230.57 56.175V56.5554H230.17C229.906 56.5743 229.645 56.492 229.439 56.3252C229.27 56.1062 229.193 55.8296 229.224 55.5544V53.5525H228.724V53.1721H229.224V52.3213H229.665V53.1721H230.59V53.5525H229.665V55.5544C229.643 55.7317 229.689 55.9108 229.795 56.0549C229.924 56.1553 230.087 56.202 230.25 56.185L230.57 56.175Z" fill="#4C4C4C"/>
<path d="M233.518 56.0149C233.619 55.9428 233.704 55.8511 233.769 55.7453C233.833 55.6395 233.876 55.5218 233.894 55.3993H234.349C234.297 55.7421 234.119 56.0529 233.849 56.2701C233.544 56.5005 233.169 56.6189 232.788 56.6054C232.489 56.6108 232.194 56.5384 231.932 56.3952C231.681 56.2575 231.478 56.0485 231.346 55.7946C231.208 55.5065 231.136 55.1909 231.136 54.8712C231.136 54.5516 231.208 54.236 231.346 53.9478C231.478 53.694 231.681 53.485 231.932 53.3473C232.194 53.2057 232.489 53.1349 232.788 53.1421C233.086 53.1325 233.382 53.2034 233.643 53.3473C233.876 53.4744 234.067 53.6655 234.194 53.8978C234.319 54.1299 234.385 54.3897 234.384 54.6535C234.392 54.7585 234.392 54.8639 234.384 54.9688H231.586C231.583 55.2184 231.643 55.4648 231.762 55.6845C231.867 55.8658 232.021 56.0134 232.207 56.11C232.389 56.2004 232.59 56.2467 232.793 56.2451C233.053 56.2469 233.307 56.1663 233.518 56.0149ZM232.172 53.6275C231.987 53.7209 231.833 53.8672 231.732 54.0479C231.61 54.2613 231.546 54.5029 231.546 54.7486H233.934C233.956 54.507 233.909 54.2641 233.799 54.0479C233.702 53.867 233.551 53.7202 233.368 53.6275C233.181 53.5386 232.977 53.4924 232.77 53.4924C232.563 53.4924 232.359 53.5386 232.172 53.6275Z" fill="#4C4C4C"/>
</svg>
