<svg width="472" height="127" viewBox="0 0 472 127" fill="none" xmlns="http://www.w3.org/2000/svg">
<path d="M174.34 83.7499C171.245 80.6942 168.806 77.0396 167.171 73.0095C165.535 68.9793 164.739 64.6582 164.83 60.3099C164.785 55.9261 165.62 51.5778 167.285 47.5221C168.95 43.4665 171.411 39.7859 174.523 36.6981C177.635 33.6102 181.335 31.1778 185.403 29.5446C189.472 27.9115 193.827 27.1108 198.21 27.1899C207.717 27.1899 215.67 30.3899 222.07 36.7899C225.191 39.8473 227.653 43.5114 229.304 47.5565C230.955 51.6015 231.76 55.9418 231.67 60.3099C231.757 64.6657 230.95 68.993 229.299 73.0246C227.648 77.0562 225.187 80.7065 222.07 83.7499C215.76 90.0599 207.8 93.2599 198.29 93.2599C188.78 93.2599 180.74 90.0599 174.34 83.7499ZM210.14 72.4199C211.739 70.8252 212.995 68.9203 213.831 66.8223C214.667 64.7242 215.065 62.4774 215 60.2199C215.041 57.9501 214.619 55.6956 213.76 53.5945C212.9 51.4933 211.621 49.5896 210 47.9999C208.47 46.4379 206.639 45.2033 204.617 44.3712C202.596 43.5392 200.426 43.127 198.24 43.1599C196.031 43.1143 193.836 43.5291 191.796 44.3778C189.756 45.2266 187.915 46.4908 186.39 48.0899C184.803 49.6718 183.555 51.5607 182.723 53.6412C181.891 55.7216 181.492 57.9499 181.55 60.1899C181.483 62.4459 181.877 64.6919 182.71 66.7899C183.542 68.8878 184.794 70.7935 186.39 72.3899C189.567 75.4988 193.835 77.2397 198.28 77.2397C202.725 77.2397 206.993 75.4988 210.17 72.3899L210.14 72.4199Z" fill="#FDFEFD"/>
<path d="M284.77 50.5399C289.18 55.2999 291.34 61.2599 291.34 68.2699C291.471 74.8654 289.09 81.2642 284.68 86.1699C282.606 88.5149 280.045 90.3794 277.176 91.6332C274.308 92.8871 271.2 93.5003 268.07 93.4299C263.043 93.5346 258.174 91.6723 254.5 88.2399V111.85H239.19V44.4899H254.24V48.8999C256.028 47.0728 258.171 45.6315 260.538 44.6649C262.905 43.6983 265.444 43.227 268 43.2799C271.156 43.1943 274.292 43.7998 277.189 45.0539C280.085 46.308 282.673 48.1804 284.77 50.5399ZM265.05 57.4599C263.607 57.4346 262.174 57.7033 260.839 58.2496C259.503 58.7959 258.293 59.6084 257.282 60.6375C256.27 61.6667 255.479 62.891 254.956 64.2358C254.433 65.5807 254.19 67.0179 254.24 68.4599C254.194 71.344 255.27 74.1333 257.24 76.2399C258.239 77.2908 259.448 78.119 260.788 78.6704C262.129 79.2219 263.571 79.4841 265.02 79.4399C266.456 79.4906 267.887 79.2309 269.214 78.6787C270.541 78.1265 271.733 77.2947 272.71 76.2399C274.68 74.1333 275.756 71.344 275.71 68.4599C275.77 62.2099 271.27 57.4599 265.05 57.4599Z" fill="#FDFEFD"/>
<path d="M314.43 92.22H299.12V44.49H314.43V92.22Z" fill="#FDFEFD"/>
<path d="M323.68 92.22V44.49H338.55V51.14C340.89 46.65 346.55 43.14 353.55 43.14C358.406 43.0487 363.101 44.8821 366.61 48.24C370.15 51.61 371.97 56.54 371.97 62.86V92.22H356.62V67C356.62 60.77 353.42 57.14 348.23 57.14C342.7 57.14 338.9 61.2 338.9 67.43V92.22H323.68Z" fill="#FDFEFD"/>
<path d="M386 86.2501C383.661 83.9028 381.821 81.1074 380.589 78.0316C379.357 74.9557 378.759 71.6628 378.83 68.3501C378.759 65.0375 379.358 61.7447 380.59 58.6689C381.822 55.5932 383.662 52.7977 386 50.4501C390.85 45.5201 397.07 43.1001 404.77 43.1001C412.47 43.1001 418.77 45.5201 423.53 50.4501C425.901 52.7785 427.769 55.5681 429.02 58.6469C430.27 61.7256 430.876 65.028 430.8 68.3501C430.877 71.6723 430.271 74.9748 429.02 78.0537C427.77 81.1325 425.901 83.9221 423.53 86.2501C418.78 91.0901 412.47 93.5201 404.77 93.5201C397.07 93.5201 390.87 91.0901 386 86.2501ZM412.47 76.1301C413.486 75.093 414.284 73.8636 414.818 72.5138C415.352 71.1641 415.611 69.7213 415.58 68.2701C415.585 66.849 415.309 65.441 414.768 64.127C414.227 62.8131 413.43 61.6193 412.426 60.6145C411.421 59.6096 410.227 58.8136 408.913 58.2722C407.599 57.7308 406.191 57.4548 404.77 57.4601C403.347 57.4249 401.933 57.6919 400.622 58.2435C399.31 58.7951 398.13 59.6188 397.16 60.6601C396.145 61.646 395.346 62.8308 394.81 64.1403C394.275 65.4499 394.016 66.8558 394.05 68.2701C394.017 69.7216 394.275 71.1651 394.809 72.5151C395.343 73.8651 396.143 75.0944 397.16 76.1301C398.145 77.146 399.33 77.9475 400.639 78.4843C401.949 79.0212 403.355 79.2819 404.77 79.2501C406.202 79.2839 407.625 79.0246 408.952 78.4881C410.28 77.9515 411.484 77.1491 412.49 76.1301H412.47Z" fill="#FDFEFD"/>
<path d="M438.25 92.2199V44.4899H452.86V50.3699C455.86 45.6099 460.13 43.1899 465.58 43.1899C467.651 43.1792 469.699 43.623 471.58 44.4899L470.33 58.9999C468.297 58.278 466.157 57.9028 464 57.8899C457 57.8899 453.45 62.4699 453.45 71.6399V92.2199H438.25Z" fill="#FDFEFD"/>
<path d="M143.11 57.8C143.11 70.6867 143.11 83.5733 143.11 96.46C143.154 97.5506 142.927 98.6352 142.451 99.6173C141.975 100.599 141.263 101.449 140.38 102.09C139.265 102.948 137.872 103.364 136.469 103.257C135.066 103.15 133.752 102.528 132.78 101.51C129.9 98.84 127.1 96.08 124.26 93.36L110.63 80.3C110.484 80.1342 110.304 80.0025 110.102 79.9144C109.9 79.8262 109.681 79.7837 109.46 79.79C107.36 79.79 105.26 79.88 103.17 79.79C102.17 79.79 101.98 80.1 101.99 81.01C102.154 83.6651 101.975 86.3303 101.46 88.94C100.229 93.947 97.3519 98.3953 93.2896 101.571C89.2274 104.746 84.216 106.465 79.06 106.45C63.22 106.45 47.3767 106.41 31.53 106.33C31.1263 106.313 30.7233 106.378 30.3453 106.52C29.9672 106.663 29.6219 106.881 29.33 107.16C22.91 113.16 16.44 119.04 10.03 125.01C8.19999 126.72 6.21999 127.56 3.80999 126.47C2.66711 126.022 1.68905 125.235 1.00776 124.214C0.326473 123.193 -0.0252675 121.987 -1.09195e-05 120.76C-1.09195e-05 112.14 -1.09195e-05 103.527 -1.09195e-05 94.92C-1.09195e-05 78.62 -1.09188e-05 62.33 0.0499891 46C0.0999891 37.12 4.37999 30.75 12.39 26.9C14.8468 25.7562 17.5302 25.1819 20.24 25.22C27.35 25.22 34.47 25.22 41.59 25.22C42.59 25.22 42.89 24.91 42.88 23.9C42.7165 21.0967 42.854 18.284 43.29 15.51C44.2121 11.6466 46.2532 8.141 49.1579 5.43198C52.0626 2.72295 55.7018 0.930855 59.62 0.280002C60.7405 0.131188 61.8697 0.0576897 63 0.0600022C83 0.0600022 103 0.220002 123 2.21265e-06C125.642 -0.0185035 128.262 0.486811 130.708 1.48675C133.154 2.48669 135.378 3.96142 137.25 5.82574C139.123 7.69006 140.608 9.90701 141.619 12.3485C142.63 14.7899 143.147 17.4075 143.14 20.05C143.09 26.53 143.14 33.05 143.14 39.49L143.11 57.8ZM11.11 108.14C11.5077 108.01 11.8565 107.763 12.11 107.43C16 104 19.84 100.49 23.64 97C24.4377 96.2367 25.3785 95.6387 26.4082 95.2406C27.438 94.8424 28.5363 94.6519 29.64 94.68C39.1067 94.7467 48.58 94.78 58.06 94.78C65.32 94.78 72.59 94.88 79.85 94.69C82.5591 94.5523 85.1131 93.384 86.9889 91.4246C88.8648 89.4651 89.9205 86.8626 89.94 84.15C89.94 83.1 89.94 82.05 89.94 81.01C89.94 79.97 89.67 79.89 88.8 79.89C82.47 79.89 76.14 79.89 69.8 79.89C65.8584 79.9175 61.9536 79.1311 58.33 77.58C48.84 73.58 42.33 65.11 42.78 54.2C43 48.59 42.78 42.97 42.85 37.35C42.85 36.45 42.58 36.22 41.71 36.23C34.85 36.23 28 36.31 21.15 36.23C19.8122 36.1937 18.4812 36.4317 17.2389 36.9295C15.9966 37.4273 14.8695 38.1742 13.9269 39.1242C12.9844 40.0743 12.2464 41.2073 11.7585 42.4535C11.2706 43.6997 11.0431 45.0325 11.09 46.37C11.24 61.94 11.14 77.52 11.14 93.1L11.11 108.14ZM131.76 85.07C131.976 84.6299 132.046 84.1326 131.96 83.65C131.96 76.2 131.96 68.75 131.96 61.29C131.96 47.43 131.96 33.57 131.96 19.71C131.96 14.71 128.51 11.11 123.68 11.11C103.26 11.11 82.8433 11.11 62.43 11.11C61.3236 11.094 60.2251 11.2991 59.199 11.7133C58.173 12.1275 57.24 12.7425 56.4547 13.5221C55.6695 14.3018 55.0479 15.2304 54.6264 16.2534C54.2048 17.2765 53.9919 18.3735 54 19.48C54 20.83 54.06 22.18 54 23.53C53.94 24.53 54.29 24.83 55.32 24.82C63.15 24.82 70.98 24.82 78.81 24.82C83.909 24.7425 88.893 26.3371 93 29.36C99.17 34 101.87 40.42 102 47.96C102.13 54.59 102 61.22 102 67.85C102 68.85 102.21 69.21 103.27 69.17C106 69.07 108.74 69.1 111.48 69.09C112.699 69.064 113.91 69.2905 115.037 69.7551C116.165 70.2198 117.183 70.9126 118.03 71.79C120.83 74.6 123.69 77.36 126.55 80.12C128.25 81.77 130 83.39 131.76 85.07ZM89.94 43.38C89.9025 42.5307 89.6623 41.7027 89.2396 40.9651C88.8168 40.2275 88.2238 39.6017 87.51 39.14C86.3589 38.3033 84.9372 37.9258 83.5226 38.0811C82.108 38.2364 80.8021 38.9135 79.86 39.98C75.5 44.31 71.17 48.67 66.86 52.98C65.79 54.05 65.78 54.04 64.66 52.98C63.54 51.92 62.46 50.73 61.28 49.69C60.1966 48.6291 58.7361 48.0421 57.2199 48.058C55.7037 48.074 54.2559 48.6916 53.195 49.775C52.1341 50.8584 51.5471 52.3189 51.563 53.8351C51.579 55.3513 52.1966 56.7991 53.28 57.86C56.0133 60.6867 58.8 63.46 61.64 66.18C62.1991 66.7545 62.8677 67.2112 63.6062 67.523C64.3448 67.8348 65.1383 67.9955 65.94 67.9955C66.7417 67.9955 67.5352 67.8348 68.2738 67.523C69.0123 67.2112 69.6809 66.7545 70.24 66.18C76.32 60.18 82.33 54.12 88.36 48.07C88.9473 47.4493 89.3927 46.7085 89.6655 45.8987C89.9383 45.0889 90.032 44.2295 89.94 43.38Z" fill="#FDFEFD"/>
<path d="M306.4 41.08C312.144 41.08 316.8 36.4238 316.8 30.68C316.8 24.9363 312.144 20.28 306.4 20.28C300.656 20.28 296 24.9363 296 30.68C296 36.4238 300.656 41.08 306.4 41.08Z" fill="#FDFEFD"/>
<path d="M264.56 104.3L267.36 111.99L270.19 104.3H271.14L267.91 113H266.83L263.61 104.29L264.56 104.3Z" fill="#FDFEFD"/>
<path d="M277.13 106.59C277.638 106.861 278.053 107.28 278.32 107.79C278.609 108.362 278.76 108.994 278.76 109.635C278.76 110.276 278.609 110.908 278.32 111.48C278.05 111.985 277.636 112.4 277.13 112.67C276.599 112.952 276.006 113.099 275.405 113.099C274.804 113.099 274.211 112.952 273.68 112.67C273.169 112.395 272.749 111.978 272.47 111.47C272.168 110.908 272.016 110.278 272.03 109.64C272.015 108.996 272.167 108.359 272.47 107.79C272.749 107.281 273.169 106.865 273.68 106.59C274.215 106.32 274.806 106.179 275.405 106.179C276.004 106.179 276.595 106.32 277.13 106.59ZM274.13 107.23C273.744 107.433 273.427 107.746 273.22 108.13C272.973 108.594 272.852 109.115 272.87 109.64C272.856 110.158 272.976 110.672 273.22 111.13C273.43 111.512 273.746 111.824 274.13 112.03C274.512 112.231 274.938 112.334 275.37 112.33C275.792 112.333 276.208 112.23 276.58 112.03C276.964 111.824 277.28 111.512 277.49 111.13C277.734 110.672 277.854 110.158 277.84 109.64C277.858 109.115 277.737 108.594 277.49 108.13C277.283 107.746 276.966 107.433 276.58 107.23C276.208 107.03 275.792 106.927 275.37 106.93C274.952 106.932 274.54 107.035 274.17 107.23H274.13Z" fill="#FDFEFD"/>
<path d="M284.12 106.76C284.574 107.162 284.862 107.718 284.93 108.32H284.11C284.068 107.906 283.876 107.522 283.57 107.24C283.226 106.947 282.782 106.796 282.33 106.82C281.951 106.797 281.577 106.914 281.28 107.15C281.156 107.257 281.058 107.391 280.994 107.542C280.93 107.693 280.901 107.856 280.91 108.02C280.904 108.139 280.922 108.258 280.963 108.37C281.005 108.481 281.068 108.583 281.15 108.67C281.318 108.842 281.523 108.972 281.75 109.05C281.99 109.13 282.31 109.22 282.75 109.31C283.154 109.403 283.552 109.523 283.94 109.67C284.241 109.786 284.507 109.979 284.71 110.23C284.935 110.514 285.052 110.868 285.04 111.23C285.046 111.479 284.994 111.727 284.891 111.954C284.787 112.181 284.633 112.381 284.44 112.54C283.99 112.9 283.425 113.085 282.85 113.06C282.169 113.088 281.499 112.883 280.95 112.48C280.703 112.29 280.498 112.053 280.347 111.781C280.195 111.509 280.101 111.209 280.07 110.9H280.91C280.929 111.111 280.989 111.317 281.089 111.504C281.189 111.691 281.325 111.856 281.49 111.99C281.883 112.286 282.368 112.435 282.86 112.41C283.223 112.432 283.581 112.314 283.86 112.08C283.98 111.97 284.074 111.835 284.136 111.685C284.198 111.534 284.227 111.372 284.22 111.21C284.227 110.957 284.138 110.71 283.97 110.52C283.799 110.345 283.59 110.212 283.36 110.13C283.12 110.05 282.79 109.95 282.36 109.85C281.963 109.764 281.572 109.65 281.19 109.51C280.901 109.391 280.644 109.206 280.44 108.97C280.22 108.685 280.11 108.33 280.13 107.97C280.12 107.714 280.17 107.46 280.276 107.228C280.382 106.995 280.541 106.79 280.74 106.63C281.209 106.271 281.791 106.094 282.38 106.13C283.018 106.118 283.637 106.343 284.12 106.76Z" fill="#FDFEFD"/>
<path d="M294.9 106.86C295.45 107.311 295.807 107.955 295.9 108.66H295C294.965 108.409 294.881 108.168 294.752 107.95C294.623 107.732 294.453 107.542 294.25 107.39C293.852 107.12 293.388 106.962 292.907 106.934C292.426 106.906 291.947 107.008 291.52 107.23C291.142 107.434 290.835 107.748 290.64 108.13C290.431 108.602 290.322 109.113 290.322 109.63C290.322 110.147 290.431 110.658 290.64 111.13C290.835 111.512 291.142 111.826 291.52 112.03C291.947 112.252 292.426 112.354 292.907 112.326C293.388 112.298 293.852 112.14 294.25 111.87C294.453 111.718 294.623 111.528 294.752 111.31C294.881 111.092 294.965 110.851 295 110.6H295.9C295.805 111.307 295.448 111.953 294.9 112.41C294.291 112.878 293.537 113.118 292.77 113.09C292.173 113.101 291.584 112.956 291.06 112.67C290.56 112.395 290.152 111.977 289.89 111.47C289.613 110.894 289.47 110.264 289.47 109.625C289.47 108.986 289.613 108.356 289.89 107.78C290.152 107.273 290.56 106.855 291.06 106.58C291.585 106.297 292.174 106.156 292.77 106.17C293.539 106.14 294.295 106.384 294.9 106.86Z" fill="#FDFEFD"/>
<path d="M298.37 103.86V113H297.49V103.85L298.37 103.86Z" fill="#FDFEFD"/>
<path d="M300.23 103.83C300.292 103.774 300.365 103.731 300.444 103.704C300.523 103.676 300.607 103.665 300.69 103.67C300.858 103.662 301.023 103.719 301.15 103.83C301.206 103.886 301.25 103.953 301.28 104.027C301.309 104.101 301.323 104.18 301.32 104.26C301.322 104.338 301.308 104.415 301.279 104.488C301.249 104.56 301.206 104.625 301.15 104.68C301.023 104.791 300.858 104.848 300.69 104.84C300.607 104.845 300.523 104.834 300.444 104.806C300.365 104.779 300.292 104.736 300.23 104.68C300.171 104.627 300.124 104.562 300.093 104.49C300.062 104.417 300.047 104.339 300.05 104.26C300.047 104.179 300.061 104.099 300.092 104.025C300.123 103.951 300.17 103.884 300.23 103.83ZM301.12 106.26V113H300.24V106.25L301.12 106.26Z" fill="#FDFEFD"/>
<path d="M307.47 111.92C307.67 111.775 307.838 111.592 307.966 111.38C308.093 111.169 308.176 110.934 308.21 110.69H309.13C309.022 111.373 308.666 111.993 308.13 112.43C307.521 112.889 306.772 113.125 306.01 113.1C305.413 113.113 304.823 112.968 304.3 112.68C303.8 112.405 303.392 111.987 303.13 111.48C302.853 110.904 302.71 110.274 302.71 109.635C302.71 108.996 302.853 108.366 303.13 107.79C303.392 107.283 303.8 106.865 304.3 106.59C304.824 106.305 305.414 106.163 306.01 106.18C306.606 106.161 307.197 106.302 307.72 106.59C308.184 106.844 308.566 107.226 308.82 107.69C309.071 108.154 309.201 108.673 309.2 109.2C309.2 109.411 309.183 109.622 309.15 109.83H303.56C303.553 110.329 303.674 110.821 303.91 111.26C304.117 111.624 304.426 111.92 304.8 112.11C305.163 112.291 305.564 112.383 305.97 112.38C306.507 112.394 307.034 112.233 307.47 111.92ZM304.78 107.15C304.409 107.339 304.1 107.63 303.89 107.99C303.655 108.419 303.531 108.9 303.53 109.39H308.3C308.333 108.908 308.229 108.426 308 108C307.804 107.637 307.5 107.343 307.13 107.16C306.764 106.978 306.359 106.885 305.95 106.89C305.545 106.886 305.145 106.975 304.78 107.15Z" fill="#FDFEFD"/>
<path d="M316 106.89C316.26 107.189 316.459 107.536 316.584 107.912C316.709 108.288 316.759 108.685 316.73 109.08V113H315.88V109.13C315.918 108.515 315.717 107.91 315.32 107.44C315.121 107.242 314.883 107.088 314.622 106.988C314.36 106.888 314.08 106.845 313.8 106.86C313.501 106.845 313.202 106.896 312.924 107.008C312.646 107.12 312.395 107.291 312.19 107.51C311.753 108.046 311.538 108.73 311.59 109.42V113H310.71V106.25H311.59V107.91C311.734 107.371 312.068 106.902 312.53 106.59C312.99 106.279 313.535 106.118 314.09 106.13C314.443 106.119 314.795 106.181 315.124 106.311C315.453 106.442 315.751 106.639 316 106.89Z" fill="#FDFEFD"/>
<path d="M321.63 112.24V113H320.83C320.303 113.038 319.78 112.873 319.37 112.54C319.19 112.323 319.054 112.073 318.972 111.803C318.889 111.534 318.862 111.25 318.89 110.97V106.97H317.89V106.21H318.89V104.51H319.77V106.21H321.62V107H319.77V111C319.726 111.354 319.819 111.712 320.03 112C320.289 112.201 320.615 112.294 320.94 112.26L321.63 112.24Z" fill="#FDFEFD"/>
<path d="M326.86 106.76C327.314 107.162 327.602 107.718 327.67 108.32H326.85C326.808 107.906 326.616 107.522 326.31 107.24C325.966 106.947 325.522 106.796 325.07 106.82C324.691 106.797 324.317 106.914 324.02 107.15C323.896 107.257 323.798 107.391 323.734 107.542C323.67 107.693 323.641 107.856 323.65 108.02C323.644 108.139 323.662 108.258 323.703 108.37C323.745 108.481 323.808 108.583 323.89 108.67C324.058 108.842 324.263 108.972 324.49 109.05C324.73 109.13 325.05 109.22 325.49 109.31C325.894 109.403 326.292 109.523 326.68 109.67C326.982 109.79 327.249 109.983 327.46 110.23C327.678 110.517 327.79 110.87 327.78 111.23C327.786 111.479 327.734 111.727 327.631 111.954C327.527 112.181 327.373 112.381 327.18 112.54C326.73 112.9 326.165 113.085 325.59 113.06C324.909 113.088 324.239 112.883 323.69 112.48C323.443 112.29 323.238 112.053 323.087 111.781C322.935 111.509 322.841 111.209 322.81 110.9H323.65C323.669 111.111 323.729 111.317 323.829 111.504C323.929 111.691 324.065 111.856 324.23 111.99C324.623 112.286 325.108 112.435 325.6 112.41C325.963 112.432 326.321 112.314 326.6 112.08C326.72 111.97 326.814 111.835 326.876 111.685C326.938 111.534 326.967 111.372 326.96 111.21C326.967 110.957 326.878 110.71 326.71 110.52C326.539 110.345 326.33 110.212 326.1 110.13C325.86 110.05 325.53 109.95 325.1 109.85C324.703 109.764 324.312 109.65 323.93 109.51C323.641 109.391 323.384 109.206 323.18 108.97C322.96 108.685 322.85 108.33 322.87 107.97C322.863 107.715 322.914 107.461 323.019 107.229C323.125 106.997 323.283 106.792 323.48 106.63C323.949 106.271 324.531 106.094 325.12 106.13C325.758 106.118 326.377 106.343 326.86 106.76Z" fill="#FDFEFD"/>
<path d="M337.78 106.59C338.258 106.874 338.644 107.291 338.89 107.79C339.169 108.366 339.307 109 339.29 109.64C339.307 110.273 339.169 110.901 338.89 111.47C338.643 111.972 338.254 112.389 337.77 112.67C337.275 112.958 336.712 113.106 336.14 113.1C335.51 113.119 334.891 112.929 334.38 112.56C333.901 112.213 333.549 111.717 333.38 111.15V116.15H332.51V106.21H333.38V108.06C333.552 107.497 333.903 107.005 334.38 106.66C334.892 106.294 335.511 106.107 336.14 106.13C336.718 106.131 337.286 106.29 337.78 106.59ZM334.61 107.27C334.222 107.509 333.912 107.857 333.72 108.27C333.509 108.712 333.4 109.195 333.4 109.685C333.4 110.175 333.509 110.658 333.72 111.1C333.918 111.494 334.228 111.821 334.61 112.04C335.001 112.269 335.447 112.386 335.9 112.38C336.239 112.397 336.577 112.341 336.892 112.217C337.208 112.093 337.494 111.903 337.73 111.66C338.183 111.092 338.429 110.387 338.429 109.66C338.429 108.933 338.183 108.228 337.73 107.66C337.494 107.417 337.208 107.227 336.892 107.103C336.577 106.979 336.239 106.923 335.9 106.94C335.449 106.935 335.004 107.049 334.61 107.27Z" fill="#FDFEFD"/>
<path d="M345.44 106.71C345.919 107.053 346.27 107.546 346.44 108.11V106.26H347.29V113H346.44V111.14C346.274 111.708 345.922 112.205 345.44 112.55C344.932 112.918 344.317 113.107 343.69 113.09C343.115 113.096 342.548 112.948 342.05 112.66C341.564 112.382 341.174 111.964 340.93 111.46C340.651 110.891 340.513 110.263 340.53 109.63C340.513 108.99 340.651 108.356 340.93 107.78C341.174 107.276 341.564 106.858 342.05 106.58C342.549 106.296 343.116 106.155 343.69 106.17C344.317 106.152 344.932 106.342 345.44 106.71ZM342.09 107.71C341.63 108.275 341.379 108.981 341.379 109.71C341.379 110.438 341.63 111.145 342.09 111.71C342.325 111.952 342.609 112.141 342.923 112.265C343.237 112.389 343.573 112.445 343.91 112.43C344.363 112.439 344.81 112.321 345.2 112.09C345.588 111.874 345.901 111.546 346.1 111.15C346.317 110.71 346.43 110.226 346.43 109.735C346.43 109.244 346.317 108.76 346.1 108.32C345.907 107.904 345.593 107.556 345.2 107.32C344.807 107.097 344.362 106.983 343.91 106.99C343.577 106.968 343.242 107.017 342.929 107.132C342.616 107.247 342.33 107.427 342.09 107.66V107.71Z" fill="#FDFEFD"/>
<path d="M351 106.53C351.488 106.257 352.041 106.122 352.6 106.14V107.08H352.31C351.726 107.057 351.152 107.241 350.69 107.6C350.46 107.818 350.283 108.085 350.172 108.381C350.061 108.677 350.02 108.995 350.05 109.31V113H349.17V106.25H350V107.65C350.198 107.175 350.55 106.78 351 106.53Z" fill="#FDFEFD"/>
<path d="M354.61 103.86V113H353.73V103.85L354.61 103.86Z" fill="#FDFEFD"/>
<path d="M361 111.92C361.202 111.777 361.371 111.594 361.499 111.382C361.626 111.171 361.708 110.935 361.74 110.69H362.66C362.557 111.375 362.2 111.996 361.66 112.43C361.051 112.889 360.302 113.125 359.54 113.1C358.943 113.111 358.354 112.966 357.83 112.68C357.33 112.405 356.922 111.987 356.66 111.48C356.383 110.904 356.24 110.274 356.24 109.635C356.24 108.996 356.383 108.366 356.66 107.79C356.922 107.283 357.33 106.865 357.83 106.59C358.355 106.307 358.944 106.166 359.54 106.18C360.136 106.161 360.727 106.302 361.25 106.59C361.714 106.844 362.096 107.226 362.35 107.69C362.601 108.154 362.731 108.673 362.73 109.2C362.73 109.411 362.713 109.622 362.68 109.83H357C356.993 110.329 357.114 110.821 357.35 111.26C357.557 111.624 357.866 111.92 358.24 112.11C358.603 112.291 359.004 112.383 359.41 112.38C359.977 112.415 360.539 112.252 361 111.92ZM358.31 107.15C357.94 107.336 357.634 107.629 357.43 107.99C357.186 108.416 357.059 108.899 357.06 109.39H361.83C361.874 108.907 361.78 108.422 361.56 107.99C361.364 107.627 361.06 107.333 360.69 107.15C360.324 106.968 359.919 106.875 359.51 106.88C359.081 106.868 358.655 106.961 358.27 107.15H358.31Z" fill="#FDFEFD"/>
<path d="M369.5 106.89C369.76 107.189 369.959 107.536 370.084 107.912C370.209 108.288 370.259 108.685 370.23 109.08V113H369.38V109.13C369.418 108.516 369.217 107.91 368.82 107.44C368.621 107.242 368.383 107.088 368.122 106.988C367.86 106.888 367.58 106.845 367.3 106.86C367.001 106.845 366.702 106.896 366.424 107.008C366.146 107.12 365.895 107.291 365.69 107.51C365.253 108.046 365.038 108.73 365.09 109.42V113H364.21V106.25H365.09V107.91C365.234 107.371 365.568 106.902 366.03 106.59C366.49 106.279 367.035 106.118 367.59 106.13C367.944 106.118 368.296 106.179 368.625 106.31C368.953 106.441 369.251 106.638 369.5 106.89Z" fill="#FDFEFD"/>
<path d="M375.12 112.24V113H374.32C373.793 113.038 373.27 112.873 372.86 112.54C372.68 112.323 372.544 112.073 372.462 111.803C372.379 111.534 372.352 111.25 372.38 110.97V106.97H371.38V106.21H372.38V104.51H373.26V106.21H375.11V107H373.26V111C373.216 111.354 373.309 111.712 373.52 112C373.778 112.201 374.104 112.294 374.43 112.26L375.12 112.24Z" fill="#FDFEFD"/>
<path d="M377.15 113.16C377.165 113.496 377.066 113.827 376.87 114.1C376.766 114.224 376.633 114.32 376.483 114.381C376.333 114.442 376.171 114.466 376.01 114.45V114.05C376.09 114.057 376.17 114.045 376.245 114.015C376.32 113.986 376.386 113.94 376.44 113.88C376.548 113.733 376.598 113.551 376.58 113.37V113.27H376V112.27H377C377.095 112.557 377.145 112.857 377.15 113.16Z" fill="#FDFEFD"/>
<path d="M388.23 104.64C388.774 104.926 389.22 105.368 389.51 105.91C389.813 106.5 389.964 107.157 389.95 107.82C389.944 108.969 389.595 110.09 388.95 111.04C388.507 111.678 387.917 112.199 387.23 112.56C386.535 112.93 385.758 113.119 384.97 113.11C384.276 113.134 383.587 112.979 382.97 112.66C382.43 112.367 381.989 111.922 381.7 111.38C381.4 110.796 381.249 110.147 381.26 109.49C381.26 109.155 381.29 108.82 381.35 108.49C381.485 107.692 381.796 106.934 382.26 106.27C382.706 105.624 383.304 105.098 384.002 104.739C384.7 104.379 385.475 104.198 386.26 104.21C386.943 104.183 387.621 104.331 388.23 104.64ZM384.53 105.64C384.009 105.925 383.564 106.329 383.23 106.82C382.869 107.357 382.623 107.963 382.51 108.6C382.462 108.861 382.439 109.125 382.44 109.39C382.415 109.754 382.466 110.12 382.588 110.464C382.71 110.808 382.901 111.123 383.15 111.39C383.406 111.635 383.709 111.825 384.041 111.949C384.373 112.073 384.726 112.128 385.08 112.11C385.657 112.114 386.225 111.969 386.73 111.69C387.256 111.409 387.705 111.004 388.04 110.51C388.411 109.979 388.654 109.37 388.75 108.73C388.801 108.47 388.828 108.205 388.83 107.94C388.857 107.586 388.807 107.23 388.684 106.897C388.561 106.564 388.367 106.262 388.117 106.01C387.866 105.759 387.565 105.564 387.232 105.44C386.9 105.316 386.544 105.265 386.19 105.29C385.616 105.27 385.047 105.39 384.53 105.64Z" fill="#FDFEFD"/>
<path d="M397.63 106.84C397.87 107.101 398.055 107.406 398.176 107.739C398.296 108.073 398.348 108.426 398.33 108.78C398.327 109.062 398.3 109.343 398.25 109.62C398.149 110.282 397.904 110.914 397.53 111.47C397.195 111.972 396.742 112.384 396.21 112.67C395.691 112.952 395.11 113.1 394.52 113.1C393.948 113.127 393.384 112.95 392.93 112.6C392.531 112.269 392.277 111.796 392.22 111.28L391.35 116.22H390.22L391.99 106.22H393.11L392.8 108C393.068 107.459 393.48 107.003 393.99 106.68C394.52 106.349 395.135 106.179 395.76 106.19C396.099 106.167 396.44 106.212 396.762 106.324C397.083 106.435 397.378 106.611 397.63 106.84ZM396.17 111.44C396.686 110.96 397.021 110.318 397.12 109.62C397.152 109.422 397.169 109.221 397.17 109.02C397.186 108.766 397.149 108.511 397.061 108.272C396.973 108.032 396.837 107.814 396.66 107.63C396.469 107.459 396.246 107.328 396.004 107.244C395.762 107.16 395.506 107.125 395.25 107.14C394.818 107.137 394.393 107.24 394.01 107.44C393.609 107.642 393.265 107.941 393.01 108.31C392.743 108.705 392.562 109.151 392.48 109.62C392.443 109.804 392.426 109.992 392.43 110.18C392.416 110.438 392.455 110.696 392.545 110.939C392.634 111.181 392.772 111.403 392.95 111.59C393.136 111.764 393.354 111.9 393.593 111.989C393.832 112.078 394.085 112.119 394.34 112.11C395.014 112.134 395.671 111.893 396.17 111.44Z" fill="#FDFEFD"/>
<path d="M401.43 106.22L400.23 113.01H399.11L400.3 106.22H401.43ZM400.7 103.78C400.874 103.62 401.104 103.534 401.34 103.54C401.517 103.533 401.691 103.59 401.83 103.7C401.885 103.751 401.929 103.813 401.958 103.882C401.987 103.951 402.002 104.025 402 104.1C402.003 104.211 401.981 104.322 401.936 104.424C401.891 104.526 401.824 104.617 401.74 104.69C401.566 104.85 401.336 104.936 401.1 104.93C400.922 104.942 400.747 104.885 400.61 104.77C400.554 104.72 400.51 104.658 400.48 104.589C400.451 104.52 400.437 104.445 400.44 104.37C400.438 104.259 400.46 104.148 400.505 104.046C400.55 103.945 400.617 103.854 400.7 103.78Z" fill="#FDFEFD"/>
<path d="M408.42 106.68C408.624 106.897 408.781 107.153 408.881 107.434C408.981 107.715 409.021 108.013 409 108.31C409.001 108.564 408.981 108.819 408.94 109.07L408.24 113.01H407.11L407.79 109.17C407.811 108.984 407.811 108.796 407.79 108.61C407.805 108.399 407.775 108.188 407.703 107.99C407.63 107.792 407.517 107.611 407.37 107.46C407.043 107.179 406.62 107.036 406.19 107.06C405.603 107.053 405.036 107.267 404.6 107.66C404.13 108.133 403.831 108.748 403.75 109.41L403.11 113.06H402L403.2 106.27H404.34L404.05 107.87C404.302 107.344 404.701 106.902 405.2 106.6C405.687 106.311 406.243 106.159 406.81 106.16C407.099 106.135 407.391 106.168 407.668 106.257C407.944 106.347 408.2 106.49 408.42 106.68Z" fill="#FDFEFD"/>
<path d="M415.76 106.47C416.187 106.694 416.536 107.043 416.76 107.47C417.018 107.923 417.146 108.439 417.13 108.96C417.127 109.225 417.1 109.49 417.05 109.75C416.949 110.404 416.688 111.022 416.29 111.55C415.923 112.052 415.439 112.457 414.88 112.73C414.316 113.003 413.697 113.143 413.07 113.14C412.293 113.174 411.533 112.905 410.95 112.39C410.685 112.131 410.478 111.819 410.342 111.474C410.206 111.129 410.144 110.76 410.16 110.39C410.16 110.132 410.183 109.874 410.23 109.62C410.339 108.964 410.603 108.343 411 107.81C411.371 107.304 411.863 106.898 412.43 106.63C412.993 106.353 413.613 106.213 414.24 106.22C414.759 106.181 415.28 106.267 415.76 106.47ZM412.94 107.4C412.543 107.59 412.2 107.875 411.94 108.23C411.653 108.646 411.462 109.121 411.38 109.62C411.344 109.825 411.324 110.032 411.32 110.24C411.304 110.496 411.342 110.753 411.434 110.993C411.525 111.232 411.667 111.45 411.85 111.63C412.228 111.953 412.713 112.125 413.21 112.11C413.614 112.111 414.011 112.015 414.37 111.83C414.77 111.645 415.114 111.359 415.37 111C415.759 110.403 415.977 109.712 416 109C416.017 108.741 415.978 108.482 415.885 108.24C415.791 107.998 415.646 107.78 415.46 107.6C415.086 107.285 414.609 107.117 414.12 107.13C413.711 107.127 413.307 107.22 412.94 107.4Z" fill="#FDFEFD"/>
<path d="M421.19 106.51C421.681 106.243 422.231 106.106 422.79 106.11L422.57 107.34H422.22C421.647 107.325 421.085 107.489 420.61 107.81C420.361 107.993 420.152 108.225 419.995 108.491C419.839 108.758 419.738 109.053 419.7 109.36L419.06 113.01H417.92L419.12 106.22H420.26L420 107.6C420.301 107.145 420.71 106.77 421.19 106.51Z" fill="#FDFEFD"/>
<path d="M431 111.92C431.2 111.775 431.368 111.592 431.496 111.381C431.623 111.169 431.706 110.934 431.74 110.69H432.66C432.552 111.373 432.196 111.993 431.66 112.43C431.051 112.889 430.302 113.125 429.54 113.1C428.94 113.112 428.347 112.967 427.82 112.68C427.325 112.401 426.922 111.984 426.66 111.48C426.383 110.904 426.24 110.274 426.24 109.635C426.24 108.996 426.383 108.366 426.66 107.79C426.922 107.286 427.325 106.869 427.82 106.59C428.348 106.306 428.941 106.165 429.54 106.18C430.136 106.162 430.727 106.304 431.25 106.59C431.714 106.844 432.096 107.226 432.35 107.69C432.598 108.155 432.725 108.674 432.72 109.2C432.725 109.411 432.708 109.622 432.67 109.83H427.09C427.078 110.329 427.199 110.823 427.44 111.26C427.646 111.622 427.951 111.917 428.32 112.11C428.687 112.29 429.091 112.382 429.5 112.38C430.037 112.394 430.564 112.233 431 111.92ZM428.31 107.15C427.937 107.336 427.627 107.628 427.42 107.99C427.185 108.419 427.061 108.901 427.06 109.39H431.83C431.874 108.907 431.78 108.422 431.56 107.99C431.36 107.63 431.057 107.337 430.69 107.15C430.318 106.972 429.912 106.88 429.5 106.88C429.088 106.88 428.682 106.972 428.31 107.15ZM431.57 104.22L429.04 105.72V105.08L431.57 103.49V104.22Z" fill="#FDFEFD"/>
<path d="M439.37 106.86C439.92 107.311 440.277 107.955 440.37 108.66H439.47C439.435 108.409 439.351 108.168 439.222 107.95C439.093 107.732 438.923 107.542 438.72 107.39C438.322 107.12 437.858 106.962 437.377 106.934C436.896 106.906 436.417 107.008 435.99 107.23C435.612 107.434 435.305 107.748 435.11 108.13C434.901 108.602 434.792 109.113 434.792 109.63C434.792 110.147 434.901 110.658 435.11 111.13C435.305 111.512 435.612 111.826 435.99 112.03C436.417 112.252 436.896 112.354 437.377 112.326C437.858 112.298 438.322 112.14 438.72 111.87C438.923 111.718 439.093 111.528 439.222 111.31C439.351 111.092 439.435 110.851 439.47 110.6H440.37C440.275 111.307 439.918 111.953 439.37 112.41C438.76 112.877 438.007 113.117 437.24 113.09C436.643 113.101 436.054 112.956 435.53 112.67C435.03 112.395 434.622 111.977 434.36 111.47C434.083 110.894 433.94 110.264 433.94 109.625C433.94 108.986 434.083 108.356 434.36 107.78C434.622 107.273 435.03 106.855 435.53 106.58C436.055 106.297 436.644 106.156 437.24 106.17C438.009 106.141 438.764 106.386 439.37 106.86Z" fill="#FDFEFD"/>
<path d="M446.73 106.59C447.237 106.866 447.654 107.283 447.93 107.79C448.213 108.364 448.36 108.995 448.36 109.635C448.36 110.275 448.213 110.906 447.93 111.48C447.652 111.983 447.236 112.396 446.73 112.67C446.203 112.959 445.611 113.107 445.01 113.1C444.406 113.106 443.811 112.958 443.28 112.67C442.773 112.394 442.356 111.977 442.08 111.47C441.773 110.91 441.621 110.278 441.64 109.64C441.621 108.995 441.772 108.357 442.08 107.79C442.356 107.283 442.773 106.866 443.28 106.59C443.812 106.308 444.408 106.167 445.01 106.18C445.609 106.166 446.202 106.307 446.73 106.59ZM443.73 107.23C443.341 107.432 443.021 107.745 442.81 108.13C442.563 108.594 442.442 109.115 442.46 109.64C442.446 110.158 442.566 110.672 442.81 111.13C443.023 111.512 443.343 111.825 443.73 112.03C444.108 112.227 444.528 112.33 444.955 112.33C445.382 112.33 445.802 112.227 446.18 112.03C446.562 111.822 446.877 111.51 447.09 111.13C447.33 110.671 447.447 110.158 447.43 109.64C447.451 109.116 447.333 108.595 447.09 108.13C446.88 107.748 446.564 107.436 446.18 107.23C445.802 107.033 445.382 106.93 444.955 106.93C444.528 106.93 444.108 107.033 443.73 107.23Z" fill="#FDFEFD"/>
<path d="M455.74 106.26V113H454.87V111.33C454.729 111.873 454.395 112.346 453.93 112.66C453.473 112.97 452.932 113.131 452.38 113.12C452.024 113.135 451.669 113.076 451.336 112.947C451.004 112.818 450.702 112.622 450.45 112.37C450.19 112.071 449.991 111.724 449.866 111.348C449.741 110.972 449.691 110.575 449.72 110.18V106.25H450.58V110.11C450.54 110.728 450.741 111.337 451.14 111.81C451.339 112.008 451.576 112.162 451.838 112.262C452.1 112.361 452.38 112.405 452.66 112.39C452.959 112.405 453.258 112.354 453.536 112.242C453.814 112.13 454.065 111.958 454.27 111.74C454.706 111.207 454.921 110.527 454.87 109.84V106.25L455.74 106.26Z" fill="#FDFEFD"/>
<path d="M460.69 112.24V113H459.89C459.363 113.038 458.84 112.873 458.43 112.54C458.091 112.103 457.937 111.55 458 111V107H457V106.24H458V104.54H458.88V106.24H460.73V107H458.88V111C458.836 111.354 458.929 111.712 459.14 112C459.399 112.201 459.724 112.294 460.05 112.26L460.69 112.24Z" fill="#FDFEFD"/>
<path d="M466.58 111.92C466.781 111.776 466.952 111.593 467.08 111.381C467.209 111.17 467.294 110.935 467.33 110.69H468.24C468.137 111.375 467.78 111.996 467.24 112.43C466.631 112.89 465.883 113.127 465.12 113.1C464.523 113.111 463.934 112.966 463.41 112.68C462.91 112.405 462.502 111.987 462.24 111.48C461.963 110.904 461.82 110.274 461.82 109.635C461.82 108.996 461.963 108.366 462.24 107.79C462.502 107.283 462.91 106.865 463.41 106.59C463.935 106.307 464.524 106.166 465.12 106.18C465.716 106.161 466.307 106.302 466.83 106.59C467.294 106.844 467.676 107.226 467.93 107.69C468.181 108.154 468.311 108.673 468.31 109.2C468.327 109.41 468.327 109.62 468.31 109.83H462.72C462.713 110.329 462.834 110.821 463.07 111.26C463.28 111.622 463.589 111.917 463.96 112.11C464.323 112.291 464.724 112.383 465.13 112.38C465.65 112.384 466.157 112.223 466.58 111.92ZM463.89 107.15C463.52 107.336 463.214 107.629 463.01 107.99C462.766 108.416 462.639 108.899 462.64 109.39H467.41C467.454 108.907 467.36 108.422 467.14 107.99C466.946 107.628 466.646 107.335 466.28 107.15C465.907 106.972 465.498 106.88 465.085 106.88C464.672 106.88 464.263 106.972 463.89 107.15Z" fill="#FDFEFD"/>
</svg>
