<svg width="72" height="64" viewBox="0 0 72 64" fill="none" xmlns="http://www.w3.org/2000/svg">
<path d="M39.5692 53.2772C42.1497 53.2845 44.6579 52.4244 46.691 50.8352C48.7241 49.2459 50.1642 47.0196 50.7801 44.5136C51.0336 43.23 51.3458 41.4055 51.2712 40.0993L48 40L45.0145 40.0993L45.0145 42.1163C45.0048 43.4739 44.4764 44.7764 43.5375 45.7571C42.5987 46.7378 41.3205 47.3225 39.9646 47.3914C36.331 47.4865 32.6925 47.4365 29.059 47.4365C24.3143 47.4365 19.573 47.4198 14.8351 47.3864C14.2827 47.3724 13.733 47.4677 13.2176 47.667C12.7022 47.8663 12.2314 48.1655 11.8322 48.5476C9.93031 50.2943 8.00844 52.051 6.06154 53.7677C5.93466 53.9342 5.76009 54.0581 5.56105 54.123L5.57607 46.5957C5.57607 38.7981 5.62612 31.0005 5.55105 23.2079C5.52756 22.5385 5.64143 21.8714 5.88562 21.2477C6.12981 20.624 6.49916 20.057 6.9709 19.5815C7.44263 19.106 8.00676 18.7322 8.62849 18.483C9.25023 18.2339 9.91641 18.1148 10.586 18.1329C14.0143 18.173 17.5667 18.248 21 18.248C21.2072 18.2457 21.3464 18.2705 21.4354 18.3457L21.5706 12.7123V12.7123C21.3878 12.7377 21.1846 12.7377 21 12.7377C17.4365 12.7377 13.689 12.6226 10.1305 12.6226C8.7743 12.6035 7.4313 12.8909 6.20168 13.4634C2.19277 15.3903 0.0506848 18.5784 0.0256604 23.0227C0.00063603 31.1957 0.000636029 39.3486 0.000636029 47.5066V60.4392C-0.0120046 61.0534 0.164037 61.6567 0.505014 62.1677C0.845991 62.6787 1.3355 63.0728 1.90749 63.2969C3.11367 63.8425 4.10464 63.4221 5.02053 62.5662C8.22865 59.5783 11.4668 56.6355 14.6799 53.6325C14.826 53.4927 14.9989 53.3838 15.1881 53.3125C15.3773 53.2411 15.579 53.2086 15.781 53.2171C23.7121 53.2572 31.6415 53.2772 39.5692 53.2772Z" fill="#C64C3A"/>
<path d="M57.5754 34.9118C58.1396 35.1444 58.6495 35.4911 59.0732 35.9303C60.4746 37.3366 61.906 38.718 63.3374 40.0993C64.1882 40.9251 65.064 41.7359 65.9449 42.5767C66.0528 42.3565 66.0879 42.1076 66.045 41.866C66.045 38.1374 66.045 34.4088 66.045 30.6751C66.045 23.7384 66.045 16.8016 66.045 9.86486C66.045 7.36242 64.3183 5.56066 61.901 5.56066C51.681 5.56066 41.4627 5.56066 31.2461 5.56066C30.6923 5.55265 30.1426 5.65531 29.629 5.86262C29.1155 6.06993 28.6485 6.37771 28.2555 6.7679C27.8625 7.1581 27.5514 7.62285 27.3405 8.1349C27.1295 8.64694 27.0229 9.19596 27.027 9.74975C27.027 10.4254 27.181 11.2162 27.151 11.8918C27.121 12.3923 27.2961 12.5425 27.8116 12.5375L21.5706 12.7123C21.8831 12.6689 22.1357 12.5512 22.1325 12.2322C22.0507 10.8292 21.4485 9.15116 21.6667 7.76281C22.1282 5.82923 23.1498 4.07472 24.6036 2.71888C26.0573 1.36305 27.8787 0.466126 29.8397 0.140382C30.4005 0.0659024 30.9657 0.0291174 31.5314 0.0302748C41.5411 0.0302748 51.5509 0.110353 61.5606 0.000245486C62.8831 -0.0090164 64.1943 0.243887 65.4185 0.744344C66.6427 1.2448 67.7556 1.98289 68.6928 2.91596C69.6301 3.84903 70.3731 4.95858 70.8791 6.18051C71.385 7.40243 71.6438 8.7125 71.6404 10.035C71.6154 13.2782 71.6404 16.5414 71.6404 19.7645L71.6254 28.9284C71.6254 35.3781 71.6254 41.8277 71.6254 48.2773C71.6472 48.8231 71.5339 49.3659 71.2956 49.8575C71.0572 50.349 70.7012 50.7741 70.2591 51.095C69.7011 51.5247 69.0038 51.7328 68.3016 51.6792C67.5993 51.6256 66.9418 51.3141 66.4554 50.8048C65.014 49.4685 63.6126 48.0871 62.1912 46.7258L55.3696 40.1894C55.2968 40.1064 55.2065 40.0405 55.1053 39.9964C55.0041 39.9523 54.8944 39.931 54.784 39.9342C53.8558 39.9342 52.1733 40.1012 51.2712 40.0993V34.71C52.4172 34.6574 54.6197 34.5832 55.795 34.5789C56.4051 34.5659 57.0112 34.6793 57.5754 34.9118Z" fill="#C64C3A"/>
<path d="M21.5707 12.7123L27.8118 12.5375C31.7306 12.5375 35.6494 12.5375 39.5682 12.5375C42.1202 12.4987 44.6146 13.2968 46.6701 14.8097C49.7581 17.1319 51.1095 20.3451 51.1745 24.1187C51.2396 27.437 51.1745 30.7552 51.1745 34.0734C51.1745 34.5739 51.2296 34.73 51.7601 34.71C51.9554 34.7028 51.0801 34.7188 51.2713 34.71V40.0993C51.1519 40.0991 51.8823 40.0545 51.7601 40.0493C51.2596 40.0493 51.0405 40.0893 51.0455 40.5447C51.0469 40.5676 51.0442 40.0764 51.0455 40.0993H48.0001H45.0146C45.0146 39.9732 45.0146 40.6704 45.0146 40.5447C45.0146 40.0242 45.0035 40.0993 44.5681 40.0993C41.4 40.0993 38.2319 40.0993 35.0588 40.0993C33.0861 40.1131 31.1318 39.7195 29.3182 38.9432C24.5686 36.9412 21.3104 32.7021 21.5356 27.2418C21.6457 24.434 21.5356 21.6213 21.5707 18.8086C21.5707 18.5725 21.5336 18.4285 21.4355 18.3457L21.5707 12.7123ZM45.1386 21.8265C45.1198 21.4014 44.9997 20.987 44.7881 20.6179C44.5765 20.2487 44.2797 19.9355 43.9225 19.7044C43.3463 19.2857 42.6348 19.0967 41.9268 19.1745C41.2188 19.2522 40.5653 19.5911 40.0937 20.1248C37.9116 22.292 35.7445 24.4741 33.5874 26.6312C33.0519 27.1667 33.0469 27.1617 32.4863 26.6312C31.9258 26.1007 31.3852 25.5051 30.7947 24.9846C30.2524 24.4536 29.5215 24.1598 28.7626 24.1678C28.0038 24.1758 27.2792 24.4849 26.7482 25.0271C26.2173 25.5694 25.9235 26.3003 25.9314 27.0592C25.9394 27.818 26.2485 28.5426 26.7908 29.0736C28.1588 30.4883 29.5534 31.8763 30.9748 33.2376C31.2547 33.5252 31.5893 33.7537 31.9589 33.9098C32.3285 34.0659 32.7257 34.1463 33.1269 34.1463C33.5282 34.1463 33.9253 34.0659 34.295 33.9098C34.6646 33.7537 34.9992 33.5252 35.279 33.2376C38.322 30.2347 41.3299 27.2017 44.3479 24.1738C44.6418 23.8631 44.8647 23.4924 45.0013 23.0871C45.1378 22.6818 45.1847 22.2517 45.1386 21.8265Z" fill="#038788"/>
</svg>
