<svg width="142" height="109" viewBox="0 0 142 109" fill="none" xmlns="http://www.w3.org/2000/svg">
<path d="M141.472 37.1728C140.078 26.7015 135.259 16.3124 126.785 9.68247C118.175 2.82163 105.974 1.20779 95.7345 5.0478C85.6065 8.80785 77.8116 16.7998 72.0964 25.6869C71.9908 25.8521 71.8887 26.021 71.7844 26.1877C71.6311 25.8975 71.4765 25.6082 71.3194 25.3203C65.8973 15.5408 57.9158 6.51836 47.3331 2.29861C38.7026 -1.04993 28.8013 -0.70623 20.3984 3.10926C2.44782 11.1272 -2.87744 31.3337 1.39433 49.2926C3.84673 59.9657 9.0462 69.8047 15.7478 78.3815C27.6011 93.8718 45.2999 104.021 63.9933 108.734C64.0494 108.748 64.108 108.717 64.1259 108.661C64.1447 108.603 64.1131 108.541 64.0551 108.522C46.9523 103.083 30.9351 93.4584 19.8771 79.2031C12.8376 70.2124 7.43813 59.7111 5.22453 48.4791C1.9666 32.6436 6.49124 14.5969 22.4683 7.80148C31.4451 3.89026 42.324 4.64013 50.4878 10.0993C58.0322 15.1214 63.7598 22.6355 67.6879 30.7635C68.0054 31.4155 68.3201 32.15 68.6045 32.8155L68.7408 33.1509C68.996 33.9251 69.4828 34.611 70.2697 34.9924C71.7055 35.7018 73.4466 35.1043 74.1451 33.6632L74.4315 33.0833L74.7543 32.4607C79.8958 23.0647 87.515 14.1574 97.6596 10.2159C108.178 6.13669 120.322 8.93708 127.803 17.4303C138.124 28.9271 140.076 46.2528 134.745 60.5098C130.803 71.6714 123.399 81.2973 114.535 89.0543C105.557 97.0594 94.9946 103.147 84.5788 108.982C91.9166 105.941 99.1971 102.033 106.055 97.7822C118.098 90.2209 129.049 80.2384 135.606 67.4368C140.387 58.1986 142.873 47.5928 141.472 37.1728Z" fill="#C64C3A"/>
</svg>
